<?xml version="1.0" standalone="no"?>
<!DOCTYPE svg PUBLIC "-//W3C//DTD SVG 20010904//EN"
 "http://www.w3.org/TR/2001/REC-SVG-20010904/DTD/svg10.dtd">
<svg version="1.0" xmlns="http://www.w3.org/2000/svg"
 width="700.000000pt" height="700.000000pt" viewBox="0 0 700.000000 700.000000"
 preserveAspectRatio="xMidYMid meet">
<metadata>
Created by potrace 1.14, written by Peter Selinger 2001-2017
</metadata>
<g transform="translate(0.000000,700.000000) scale(0.100000,-0.100000)"
fill="#000000" stroke="none">
<path d="M3278 6995 c-1 -1 -42 -5 -89 -9 -47 -4 -96 -9 -109 -11 -12 -2 -48
-7 -79 -11 -31 -3 -65 -8 -76 -10 -11 -2 -45 -8 -75 -14 -83 -15 -89 -16 -180
-40 -47 -12 -95 -24 -107 -26 -39 -7 -261 -84 -367 -126 -123 -49 -348 -157
-435 -210 -34 -21 -67 -38 -72 -38 -5 0 -9 -4 -9 -10 0 -5 -5 -10 -11 -10 -9
0 -131 -78 -185 -119 -12 -9 -32 -23 -44 -31 -157 -105 -422 -350 -595 -550
-102 -119 -295 -376 -295 -394 0 -3 -13 -24 -29 -48 -74 -112 -213 -386 -276
-548 -71 -182 -155 -461 -171 -570 -3 -19 -7 -43 -10 -52 -13 -44 -41 -234
-51 -348 -10 -105 -10 -518 -1 -620 17 -179 35 -303 63 -426 8 -34 16 -73 19
-85 56 -277 243 -732 412 -1002 27 -43 54 -86 59 -96 24 -41 134 -193 189
-261 569 -710 1379 -1176 2255 -1296 25 -3 57 -8 71 -10 162 -25 682 -25 841
1 13 2 43 6 66 9 22 3 52 7 65 10 12 3 39 8 58 10 127 18 343 73 520 133 179
60 505 209 631 289 21 13 41 24 44 24 3 0 11 5 18 10 7 6 67 47 134 91 104 69
301 220 362 277 196 185 345 345 457 492 27 36 52 66 57 68 4 2 7 10 7 17 0 7
4 15 8 17 13 5 138 200 205 319 244 437 387 902 434 1414 14 151 5 675 -11
704 -2 4 -7 35 -10 70 -4 36 -8 67 -10 70 -2 3 -7 29 -10 56 -33 247 -158 635
-299 925 -201 411 -479 779 -816 1077 -135 120 -144 128 -243 201 -421 312
-880 516 -1397 623 -53 11 -112 22 -131 24 -19 3 -46 7 -60 10 -13 2 -52 7
-86 11 -33 3 -74 8 -90 10 -33 5 -540 14 -546 9z"/>
</g>
</svg>
