<?xml version="1.0" encoding="UTF-8" standalone="no"?>
<svg
   version="1.1"
   id="svg2"
   xml:space="preserve"
   width="3555.5601"
   height="2666.6667"
   viewBox="0 0 3555.5601 2666.6667"
   sodipodi:docname="planning2.svg"
   inkscape:version="1.1 (c4e8f9ed74, 2021-05-24)"
   xmlns:inkscape="http://www.inkscape.org/namespaces/inkscape"
   xmlns:sodipodi="http://sodipodi.sourceforge.net/DTD/sodipodi-0.dtd"
   xmlns="http://www.w3.org/2000/svg"
   xmlns:svg="http://www.w3.org/2000/svg"
   xmlns:rdf="http://www.w3.org/1999/02/22-rdf-syntax-ns#"
   xmlns:cc="http://creativecommons.org/ns#"
   xmlns:dc="http://purl.org/dc/elements/1.1/"><metadata
     id="metadata8"><rdf:RDF><cc:Work
         rdf:about=""><dc:format>image/svg+xml</dc:format><dc:type
           rdf:resource="http://purl.org/dc/dcmitype/StillImage" /></cc:Work></rdf:RDF></metadata><defs
     id="defs6" /><sodipodi:namedview
     pagecolor="#ffffff"
     bordercolor="#666666"
     borderopacity="1"
     objecttolerance="10"
     gridtolerance="10"
     guidetolerance="10"
     inkscape:pageopacity="0"
     inkscape:pageshadow="2"
     inkscape:window-width="1720"
     inkscape:window-height="1416"
     id="namedview4"
     inkscape:pagecheckerboard="0"
     showgrid="false"
     inkscape:zoom="0.32737499"
     inkscape:cx="1852.6156"
     inkscape:cy="1394.4254"
     inkscape:window-x="1920"
     inkscape:window-y="24"
     inkscape:window-maximized="0"
     inkscape:current-layer="g12" /><g
     id="g10"
     inkscape:groupmode="layer"
     inkscape:label="ink_ext_XXXXXX"
     transform="matrix(1.3333333,0,0,-1.3333333,0,2666.6667)"><g
       id="g12"
       transform="scale(0.1)"><path
         d="M 26666.7,0 H 0 V 20000 H 26666.7 V 0"
         style="fill:#ffffff;fill-opacity:1;fill-rule:nonzero;stroke:none"
         id="path14" /><path
         d="M 2934.16,999.902 C 2233.36,1343.1 558.012,1827.1 849.836,3903.2 943.391,4568.7 1798.37,5582 2422,5832.7 c 2406.31,967.6 1832.38,1780.8 790.6,3536.5 -810.18,1871.3 -420.45,5171.2 1424.7,6160.1 1191.68,638.7 3326.05,-296.1 4578.34,213.5 1351.16,549.7 1486.16,2100.7 2789.06,2756.6 3908.8,1967.9 9616.6,169.8 9794.3,-4262.3 324,-8080.4 6658.9,-4996.2 2248.8,-13347.299 L 2934.16,999.902"
         style="fill:#b4f0de;fill-opacity:1;fill-rule:nonzero;stroke:none"
         id="path16" /><path
         d="m 3730.28,4453.4 c -30.96,-27.7 -53.33,-76.7 -63.34,-140.6 -15.07,-96.3 -1.58,-213.9 37.99,-331.1 63.28,-187.5 288.01,-332.2 379.32,-384.5 29.76,95.5 91.12,335 28.02,522 l 36.54,12.3 -36.54,-12.3 c -77.57,229.8 -236.37,392.5 -346.77,355.3 -12.67,-4.3 -24.46,-11.4 -35.22,-21.1 z m 396.76,-965.3 -37.95,18.7 c -14.96,7.4 -367.32,183.8 -457.25,450.2 -43.47,128.8 -58.07,259.4 -41.11,367.7 18.35,117.2 71.65,196.4 150.1,222.8 155.19,52.4 350.45,-124.9 444.52,-403.7 89.26,-264.4 -37.73,-601.9 -43.18,-616.2 l -15.13,-39.5"
         style="fill:#f7f9ff;fill-opacity:1;fill-rule:nonzero;stroke:none"
         id="path18" /><path
         d="m 3368.24,3382 c -15.29,-13.7 -26.04,-29.3 -31.63,-46.5 -36.01,-110.8 128.47,-267.8 359.17,-342.8 188.21,-61.1 438.4,32.8 534.9,74.8 -58.86,80.9 -214.34,273.1 -402.04,334.1 -117.68,38.2 -235.41,50.4 -331.51,34.3 -56,-9.5 -100.34,-28.3 -128.89,-53.9 z m 975.53,-345.3 -37.68,-19.2 c -14.85,-7.6 -366.69,-185 -634.16,-98.1 -279.79,90.9 -459.3,284.2 -408.68,439.9 25.59,78.8 104.11,133 221.09,152.6 108.13,18.2 238.87,5.1 368.14,-36.9 v 0 c 265.46,-86.3 460.44,-389.7 468.6,-402.5 l 22.69,-35.8"
         style="fill:#f7f9ff;fill-opacity:1;fill-rule:nonzero;stroke:none"
         id="path20" /><path
         d="m 4317.52,3104.3 c 92.53,38 316.07,143.5 419.8,311.4 v 0 c 65.03,105.3 104.74,216.8 111.82,314 6.32,86.9 -15.36,152.4 -59.5,179.7 -44.13,27.3 -112.41,17.3 -187.34,-27.2 -83.75,-49.9 -165.69,-135.3 -230.72,-240.5 -104.02,-168.4 -72.02,-433.7 -54.06,-537.4 z m 366.79,132.2 c -161.54,-144.8 -372.14,-217.4 -383.42,-221.2 l -40.09,-13.6 -9.8,41.2 c -3.86,16.2 -92.86,400 54.95,639.3 71.44,115.6 162.68,210.2 256.91,266.3 101.95,60.6 196.89,70.1 267.33,26.5 70.44,-43.5 104.49,-132.6 95.88,-250.9 -7.96,-109.4 -51.69,-233.3 -123.13,-348.9 v 0 c -32.07,-51.9 -73.43,-98.1 -118.63,-138.7"
         style="fill:#f7f9ff;fill-opacity:1;fill-rule:nonzero;stroke:none"
         id="path22" /><path
         d="m 4823.34,2293.7 -91.01,-57.3 -2.06,2.1 c -2.88,-1.3 -5.97,-2.8 -9.28,-4.4 l -30.97,-14.5 -18.11,29 c -44.62,71.5 -86.54,140.1 -124.59,203.9 -475.99,796.5 -560.56,1166.7 -563.93,1182.1 l -8.27,37.7 149.44,32.5 7.78,-37.9 c 2.02,-8.7 89.81,-376.6 559.5,-1159.3 36.08,-60 73.51,-121.1 111.25,-181.5 l 20.25,-32.4"
         style="fill:#f7f9ff;fill-opacity:1;fill-rule:nonzero;stroke:none"
         id="path24" /><path
         d="m 8705,2995 c 0,725.6 -588.25,1313.9 -1313.89,1313.9 -576.6,0 -1066.4,-371.5 -1243.31,-888.1 -75.41,45.9 -163.98,72.4 -258.73,72.4 -275.14,0 -498.2,-223.1 -498.2,-498.2 0,-42.3 5.32,-83.4 15.25,-122.6 -51.32,7.7 -103.82,11.7 -157.27,11.7 -582.44,0 -1054.6,-472.2 -1054.6,-1054.6 0,-582.5 457.23,-1000.898 1039.68,-1000.898 244.83,0 2473.58,97.597 2473.58,97.597 0,0 997.49,1504.801 997.49,2068.801"
         style="fill:#239037;fill-opacity:1;fill-rule:nonzero;stroke:none"
         id="path26" /><path
         d="m 24521.9,1135.5 c 0,-47.7 -4.3,-94.1 -12.8,-139.398 H 17645 l 433.3,2215.298 c -321.2,203.9 -529,529.4 -529,896.1 0,617.2 589,1117.6 1315.6,1117.6 726.5,0 1315.6,-500.4 1315.6,-1117.6 0,-84.3 -11,-166.4 -31.9,-245.3 52.2,5.1 105.3,7.9 159.1,7.9 602.8,0 1114.9,-330 1299.9,-788.8 78.7,40.8 171.4,64.3 270.4,64.3 287.7,0 520.9,-198.1 520.9,-442.5 0,-37.6 -5.6,-74.1 -16,-108.9 53.7,6.8 108.5,10.4 164.4,10.4 523.3,0 961.5,-309.7 1074.4,-725.1 46.1,8.7 93.8,13.5 142.6,13.5 418.4,0 757.6,-339.1 757.6,-757.5"
         style="fill:#239037;fill-opacity:1;fill-rule:nonzero;stroke:none"
         id="path28" /><path
         d="m 19722.6,7776.9 c -226.4,-243.9 -668.1,-302.4 -668.1,-302.4 0,0 -18.9,486 207.5,729.9 226.3,243.9 513,345.9 640.1,227.8 127.2,-118.1 46.9,-411.5 -179.5,-655.3"
         style="fill:#239037;fill-opacity:1;fill-rule:nonzero;stroke:none"
         id="path30" /><path
         d="m 18785.2,7702.9 c 60.5,-327.2 -156.3,-716.5 -156.3,-716.5 0,0 -401.2,275 -461.7,602.2 -60.5,327.2 28.8,618 199.4,649.6 170.7,31.5 358.1,-208.1 418.6,-535.3"
         style="fill:#239037;fill-opacity:1;fill-rule:nonzero;stroke:none"
         id="path32" /><path
         d="m 18106.5,6144 c -22.2,-53.5 -40.3,-89.1 -45,-98.2 -0.5,-1.1 -0.9,-2 -1.2,-2.2 v -0.2 c 0,0 -0.2,0.1 -0.3,0.3 l -1.3,0.8 c -4.5,3 -17.4,11.9 -36.6,26 -102.6,75.7 -380.5,301.6 -434.8,566.3 -66.6,326 17.2,618.5 187.1,653.2 170,34.8 362,-201.3 428.7,-527.1 29.8,-145.9 4.3,-305.5 -33,-437 -20,-71 -43.5,-133.7 -63.6,-181.9"
         style="fill:#239037;fill-opacity:1;fill-rule:nonzero;stroke:none"
         id="path34" /><path
         d="m 19288,6664.9 c -332.2,18.7 -659.1,321.5 -659.1,321.5 0,0 362.2,324.7 694.4,306 332.2,-18.7 593.6,-174.4 583.8,-347.7 -9.7,-173.2 -286.9,-298.5 -619.1,-279.8"
         style="fill:#239037;fill-opacity:1;fill-rule:nonzero;stroke:none"
         id="path36" /><path
         d="m 18718.6,5817.2 c -332.3,-16 -688.9,251.1 -688.9,251.1 0,0 326.3,360.6 658.7,376.6 332.3,16 608.5,-111.5 616.9,-284.9 8.3,-173.3 -254.3,-326.8 -586.7,-342.8"
         style="fill:#239037;fill-opacity:1;fill-rule:nonzero;stroke:none"
         id="path38" /><path
         d="m 19175.6,7556.5 c -3.8,-3.2 -356.7,-314.5 -942.3,-1306.8 -42.9,-72.7 -87,-149.1 -132.4,-229.2 l -4.9,2.7 -35.7,20.2 v 0.2 l -0.3,0.1 -1.3,0.8 c -4.5,3 -17.4,11.9 -36.6,26 51,89.9 100.2,174.9 148,255.4 583.7,984.9 929.1,1287.8 944.6,1301.3 l 60.9,-70.7"
         style="fill:#239037;fill-opacity:1;fill-rule:nonzero;stroke:none"
         id="path40" /><path
         d="m 4886.13,10729.1 c 243.7,-215.8 311.04,-646.5 311.04,-646.5 0,0 -474.87,-29.6 -718.57,186.2 -243.7,215.7 -350.04,493.7 -237.5,620.8 112.54,127.1 401.33,55.2 645.03,-160.5"
         style="fill:#239037;fill-opacity:1;fill-rule:nonzero;stroke:none"
         id="path42" /><path
         d="m 4980.01,9814 c 318.59,66.7 704.28,-136.3 704.28,-136.3 0,0 -259.68,-398.7 -578.26,-465.4 -318.59,-66.8 -605.06,13.9 -639.86,180 -34.79,166.2 195.26,355 513.84,421.7"
         style="fill:#239037;fill-opacity:1;fill-rule:nonzero;stroke:none"
         id="path44" /><path
         d="m 6520.25,9186.1 c 52.75,-20.4 88.02,-37.3 97.03,-41.7 1.12,-0.5 1.95,-0.9 2.2,-1.1 l 0.14,-0.1 c 0,0 -0.04,-0.1 -0.22,-0.2 l -0.72,-1.4 c -2.88,-4.4 -11.27,-17.2 -24.63,-36.3 -71.72,-102.1 -286.27,-379.1 -543.82,-438.3 -317.27,-72.6 -605.29,2.6 -643.11,168 -37.96,165.5 188.52,358.6 505.65,431.3 141.99,32.5 298.59,11.3 428.12,-22.2 69.83,-17.9 131.76,-39.4 179.36,-58"
         style="fill:#239037;fill-opacity:1;fill-rule:nonzero;stroke:none"
         id="path46" /><path
         d="m 5983.6,10329.6 c -10.66,-325.3 -299.31,-651.9 -299.31,-651.9 0,0 -325.8,346.7 -315.14,672 10.65,325.3 156.85,584.6 326.52,579 169.68,-5.6 298.59,-273.8 287.93,-599.1"
         style="fill:#239037;fill-opacity:1;fill-rule:nonzero;stroke:none"
         id="path48" /><path
         d="m 6825.77,9792.3 c 23.31,-324.6 -229.71,-679.6 -229.71,-679.6 0,0 -360.18,310.9 -383.5,635.6 -23.31,324.6 95.06,597.7 264.39,609.9 169.33,12.1 325.5,-241.2 348.82,-565.9"
         style="fill:#239037;fill-opacity:1;fill-rule:nonzero;stroke:none"
         id="path50" /><path
         d="m 5114.23,10199.2 c 3.21,-3.6 315.77,-341.6 1299.7,-891.5 72.12,-40.2 147.84,-81.7 227.2,-124.2 l -2.52,-4.8 -18.99,-35.5 -0.14,0.1 -0.08,-0.3 -0.72,-1.4 c -2.88,-4.4 -11.27,-17.2 -24.63,-36.3 -89.07,47.8 -173.38,94 -253.16,138.8 -976.66,548.3 -1280.89,879 -1294.4,893.9 l 67.74,61.2"
         style="fill:#239037;fill-opacity:1;fill-rule:nonzero;stroke:none"
         id="path52" /><path
         d="m 5203.31,6711.4 c 241.03,132.7 603.06,64 603.06,64 0,0 -111.29,-386.5 -352.32,-519.3 -241.04,-132.7 -492.57,-138.4 -561.8,-12.7 -69.25,125.7 70.02,335.2 311.06,468"
         style="fill:#239037;fill-opacity:1;fill-rule:nonzero;stroke:none"
         id="path54" /><path
         d="m 5958.59,6526.2 c 37.38,272.6 308.63,522 308.63,522 0,0 243.67,-320 206.3,-592.6 -37.38,-272.6 -182.95,-477.8 -325.15,-458.3 -142.19,19.5 -227.15,256.3 -189.78,528.9"
         style="fill:#239037;fill-opacity:1;fill-rule:nonzero;stroke:none"
         id="path56" /><path
         d="m 6896.08,7574.2 c 31.25,36.2 54.71,59.5 60.77,65.4 0.7,0.8 1.26,1.4 1.51,1.5 l 0.08,0.1 c 0,0 0.1,-0.1 0.13,-0.3 l 0.89,-0.9 c 2.67,-3.6 10.55,-13.9 21.92,-29.9 60.96,-86.2 220.54,-335.7 194.5,-557.6 -32.28,-273.2 -174,-481.2 -316.46,-464.3 -142.53,16.8 -231.97,252 -199.77,525.1 14.44,122.3 75.81,241 139.3,334.6 34.05,50.5 68.8,93.7 97.13,126.3"
         style="fill:#3f964f;fill-opacity:1;fill-rule:nonzero;stroke:none"
         id="path58" /><path
         d="m 5833.14,7471.8 c 256.01,-100.9 434.08,-423.6 434.08,-423.6 0,0 -368.65,-160.9 -624.66,-60 -256,100.9 -420.88,291 -368.25,424.5 52.63,133.5 302.82,160 558.83,59.1"
         style="fill:#239037;fill-opacity:1;fill-rule:nonzero;stroke:none"
         id="path60" /><path
         d="m 6500.18,7989.7 c 265.13,-73.6 475.86,-375.9 475.86,-375.9 0,0 -349.86,-198.5 -614.99,-124.9 -265.13,73.7 -448.92,245.5 -410.5,383.8 38.42,138.3 284.49,190.7 549.63,117"
         style="fill:#239037;fill-opacity:1;fill-rule:nonzero;stroke:none"
         id="path62" /><path
         d="m 5690,6742.5 c 3.8,1.5 361.7,154.4 1079.08,781.6 52.51,46 107.02,94.5 163.42,145.6 l 3.11,-3.3 22.83,-25.2 -0.08,-0.1 0.21,-0.2 0.89,-0.9 c 2.67,-3.6 10.55,-13.9 21.92,-29.9 -63.32,-57.4 -124.05,-111.4 -182.43,-162.2 C 6084.96,6826 5735.17,6677.7 5719.45,6671.2 l -29.45,71.3"
         style="fill:#239037;fill-opacity:1;fill-rule:nonzero;stroke:none"
         id="path64" /><path
         d="m 24527.1,5303.7 c -100.8,0 -241.2,-102.1 -341.2,-248.3 -104.3,-152.4 -86.1,-401.1 -73.8,-498.6 87.9,31.4 300.8,120.1 404.9,272 127.8,186.8 160,396.6 70.3,458 -16.5,11.2 -36.7,16.9 -60.2,16.9 z m -472.4,-840 -7.3,38.8 c -2.9,15.3 -69.1,377 79.1,593.6 116.2,169.8 273.5,279.6 400.6,279.6 38.3,0 72.2,-9.9 100.8,-29.5 126.2,-86.4 103.5,-331.5 -51.5,-558 -147.2,-215 -470.1,-309.7 -483.7,-313.6 l -38,-10.9"
         style="fill:#f7f9ff;fill-opacity:1;fill-rule:nonzero;stroke:none"
         id="path66" /><path
         d="m 23527.7,4972.4 c -10.6,0 -20.8,-1.7 -30.3,-5 -102.9,-35.3 -127.6,-246 -54,-460.1 60,-174.7 270.4,-308.5 355.9,-356.9 27.3,89.3 83.3,313.1 23.5,487.2 -65.6,190.9 -192.4,334.8 -295.1,334.8 z m 312.1,-923.6 -35.5,17.3 c -14,6.8 -343.8,169.6 -429,417.8 -89.2,259.6 -45.9,501.9 98.7,551.6 17.1,5.9 35.2,8.9 53.7,8.9 136.3,0 285.6,-157.7 363.1,-383.4 84.7,-246.3 -32.1,-561.9 -37.1,-575.2 l -13.9,-37"
         style="fill:#f7f9ff;fill-opacity:1;fill-rule:nonzero;stroke:none"
         id="path68" /><path
         d="m 23194.6,4201.3 c -11.3,0 -22.2,-1.9 -32.2,-5.5 -45.5,-16.6 -77.7,-72.4 -88.3,-153 -11.9,-90.2 3.3,-199.6 42.9,-308.1 64.3,-176 285.3,-308.3 362.7,-350.1 3,10.6 6.4,23.1 9.9,37.2 11.8,46.5 20.6,93 26.4,138.3 15.9,123.3 8.5,228.3 -22.1,312.2 -68.4,187.6 -197.1,329 -299.3,329 z m 336.3,-909.6 -50.2,8.3 -3.4,4.7 c -5.8,2.9 -14,7 -24.3,12.5 -97,51.4 -330.5,192.7 -403.6,392.8 -43.5,119.2 -60.1,240.7 -46.7,342.2 14.5,109.8 62.4,184.8 135,211.2 18,6.6 37.1,9.9 56.9,9.9 135.2,0 286.1,-154.8 366.9,-376.3 34.6,-94.9 43.3,-211.3 25.9,-346.1 -6.1,-48 -15.5,-97.4 -28,-146.7 -10.4,-41.6 -20,-70.9 -23.1,-80 l -5.4,-32.5"
         style="fill:#f7f9ff;fill-opacity:1;fill-rule:nonzero;stroke:none"
         id="path70" /><path
         d="m 23875.4,4106.3 c 74.5,-44.3 255.7,-140.1 428.1,-140.1 13.5,0 26.9,0.7 39.7,1.8 225.4,20.8 407.4,129.8 397.5,238.1 -8.7,94 -162.7,165 -358.2,165 -25,0 -50.6,-1.2 -76.1,-3.6 -184.2,-16.9 -363.9,-189.6 -431,-261.2 z m 428.1,-212 c -245.5,0 -493.4,167.3 -503.8,174.4 l -32.6,22.3 25.2,30.4 c 9.9,12 246.2,293.8 507.5,317.8 27.7,2.5 55.5,3.8 82.7,3.8 240.6,0 417.4,-94.7 429.9,-230.3 14,-152.3 -189.2,-291.2 -462.6,-316.4 -15,-1.3 -30.6,-2 -46.3,-2"
         style="fill:#f7f9ff;fill-opacity:1;fill-rule:nonzero;stroke:none"
         id="path72" /><path
         d="m 23530,3361.7 c 70.6,-32.5 230.9,-97.3 386.9,-97.3 32.8,0 64,2.9 92.8,8.6 222,44.1 391.7,171.5 370.5,278.1 -15.4,77.1 -136.4,131 -294.3,131 -50.2,0 -102.2,-5.2 -154.4,-15.7 -181.5,-36 -342.2,-226.5 -401.5,-304.7 z m 386.9,-169.3 c -225.7,0 -448.9,119 -458.2,124 l -34.8,18.8 21.9,32.9 c 8.6,12.9 214.2,317.8 471.6,369 56.9,11.3 113.6,17 168.5,17 198.8,0 342,-74.2 364.9,-188.9 29.8,-149.9 -157.8,-309.3 -427.1,-362.8 -33.4,-6.7 -69.3,-10 -106.8,-10"
         style="fill:#f7f9ff;fill-opacity:1;fill-rule:nonzero;stroke:none"
         id="path74" /><path
         d="m 23554.8,3274.2 -93.8,35.8 0.4,2.7 c -2.6,1.4 -5.4,2.9 -8.4,4.5 l -28.2,14.9 11.5,29.8 c 28.2,73.3 55.8,143 82.1,207.3 326.6,801.4 555.4,1072.7 564.9,1083.8 l 23.5,27.4 108,-93.2 -23.9,-27.3 c -2,-2.4 -228.2,-273 -550.3,-1067.6 -24.6,-60.7 -49.1,-122.9 -72.9,-184.7 l -12.9,-33.4"
         style="fill:#f7f9ff;fill-opacity:1;fill-rule:nonzero;stroke:none"
         id="path76" /><path
         d="m 16055.8,17732.3 c -195.6,0 -354.8,-159.2 -354.8,-354.8 0,-195.6 159.2,-354.8 354.8,-354.8 195.6,0 354.7,159.2 354.7,354.8 0,195.6 -159.1,354.8 -354.7,354.8 z m 0,-802.1 c -246.7,0 -447.3,200.7 -447.3,447.3 0,246.7 200.6,447.3 447.3,447.3 246.6,0 447.3,-200.6 447.3,-447.3 0,-246.6 -200.7,-447.3 -447.3,-447.3"
         style="fill:#f7f9ff;fill-opacity:1;fill-rule:nonzero;stroke:none"
         id="path78" /><path
         d="M 24895.7,779.801 H 2934.16 c -60.76,0 -110.01,49.301 -110.01,110 v 0 c 0,60.801 49.25,110.101 110.01,110.101 H 24895.7 c 60.8,0 110.1,-49.3 110.1,-110.101 v 0 c 0,-60.699 -49.3,-110 -110.1,-110"
         style="fill:#08392c;fill-opacity:1;fill-rule:nonzero;stroke:none"
         id="path80" /><path
         d="m 4391.63,6149.6 c -195.62,0 -354.77,-159.1 -354.77,-354.7 0,-195.6 159.15,-354.8 354.77,-354.8 195.61,0 354.76,159.2 354.76,354.8 0,195.6 -159.15,354.7 -354.76,354.7 z m 0,-802 c -246.65,0 -447.32,200.6 -447.32,447.3 0,246.6 200.67,447.3 447.32,447.3 246.65,0 447.31,-200.7 447.31,-447.3 0,-246.7 -200.66,-447.3 -447.31,-447.3"
         style="fill:#f7f9ff;fill-opacity:1;fill-rule:nonzero;stroke:none"
         id="path82" /><path
         d="m 5666.61,4780.9 c 0,-148.4 -120.27,-268.6 -268.62,-268.6 -148.36,0 -268.62,120.2 -268.62,268.6 0,148.3 120.26,268.6 268.62,268.6 148.35,0 268.62,-120.3 268.62,-268.6"
         style="fill:#f7f9ff;fill-opacity:1;fill-rule:nonzero;stroke:none"
         id="path84" /><path
         d="m 15367.2,18245.3 c 0,-148.4 -120.2,-268.7 -268.6,-268.7 -148.4,0 -268.6,120.3 -268.6,268.7 0,148.3 120.2,268.6 268.6,268.6 148.4,0 268.6,-120.3 268.6,-268.6"
         style="fill:#f7f9ff;fill-opacity:1;fill-rule:nonzero;stroke:none"
         id="path86" /><path
         d="m 24104.3,6915.6 c 0,-148.4 -120.2,-268.6 -268.6,-268.6 -148.3,0 -268.6,120.2 -268.6,268.6 0,148.3 120.3,268.6 268.6,268.6 148.4,0 268.6,-120.3 268.6,-268.6"
         style="fill:#f7f9ff;fill-opacity:1;fill-rule:nonzero;stroke:none"
         id="path88" /><path
         d="M 17781.9,996.102 H 6864.47 c -171.9,0 -311.26,139.398 -311.26,311.298 v 14740.2 c 0,171.9 139.36,311.3 311.26,311.3 H 17781.9 c 171.9,0 311.2,-139.4 311.2,-311.3 V 1307.4 c 0,-171.9 -139.3,-311.298 -311.2,-311.298"
         style="fill:#1cce9d;fill-opacity:1;fill-rule:nonzero;stroke:none"
         id="path90" /><path
         d="m 9534.63,12649.5 -2974.74,-1155.2 -1093.6,2816.1 2974.74,1155.2 1093.6,-2816.1"
         style="fill:#f5a3b7;fill-opacity:1;fill-rule:nonzero;stroke:none"
         id="path92" /><path
         d="m 7379.05,15055.7 v -3236.1 l 185.14,56.4 v 3252.1 l -185.14,-72.4"
         style="fill:#f291a9;fill-opacity:1;fill-rule:nonzero;stroke:none"
         id="path94" /><path
         d="M 17477.6,1661.3 H 9565.93 L 7721.3,2985.2 v 12960.2 h 9756.3 V 1661.3"
         style="fill:#19a880;fill-opacity:1;fill-rule:nonzero;stroke:none"
         id="path96" /><path
         d="M 17329.8,1777.7 H 9418.09 l -1844.64,1313 V 15943.8 H 17329.8 V 1777.7"
         style="fill:#ffffff;fill-opacity:1;fill-rule:nonzero;stroke:none"
         id="path98" /><path
         d="m 9418.09,1772.1 -1843.94,1318.6 1224,248.2 z"
         style="fill:#cdd8fa;fill-opacity:1;fill-rule:nonzero;stroke:none"
         id="path100" /><path
         d="M 7574.15,3090.7 9565.93,1661.3 c 0,0 -1504.66,444.6 -1991.78,1429.4"
         style="fill:#19a880;fill-opacity:1;fill-rule:nonzero;stroke:none"
         id="path102" /><path
         d="m 15321.5,16297.7 v -711.1 c 0,-73.5 -59.6,-133.2 -133.2,-133.2 H 9757.86 c -73.63,0 -133.28,59.7 -133.28,133.2 v 711.1 c 0,304.6 247.01,551.6 551.72,551.6 h 4593.6 c 142,0 271.6,-53.7 369.4,-141.9 111.9,-101 182.2,-247.1 182.2,-409.7"
         style="fill:#f37a50;fill-opacity:1;fill-rule:nonzero;stroke:none"
         id="path104" /><path
         d="m 13644.4,16658.5 h -2342.7 c 0,65 5.3,128.7 15.5,190.8 91.1,556.2 574,980.5 1155.9,980.5 581.9,0 1064.8,-424.3 1155.8,-980.5 10.3,-62.1 15.5,-125.8 15.5,-190.8"
         style="fill:#f37a50;fill-opacity:1;fill-rule:nonzero;stroke:none"
         id="path106" /><path
         d="m 15139.3,16707.4 -5514.72,-987.3 v 577.6 c 0,304.6 247.01,551.6 551.72,551.6 h 1140.9 c 91.1,556.2 574,980.5 1155.9,980.5 581.9,0 1064.8,-424.3 1155.8,-980.5 h 1141 c 142,0 271.6,-53.7 369.4,-141.9"
         style="fill:#de623c;fill-opacity:1;fill-rule:nonzero;stroke:none"
         id="path108" /><path
         d="m 12823.4,17198.8 c 0,-193.5 -156.9,-350.3 -350.3,-350.3 -193.5,0 -350.3,156.8 -350.3,350.3 0,193.4 156.8,350.3 350.3,350.3 193.4,0 350.3,-156.9 350.3,-350.3"
         style="fill:#e3e9ff;fill-opacity:1;fill-rule:nonzero;stroke:none"
         id="path110" /><path
         d="m 8333.22,12011.9 h 1462.64 v 1462.6 H 8333.22 Z m 1557.36,-189.5 H 8238.51 c -52.31,0 -94.72,42.4 -94.72,94.7 v 1652.1 c 0,52.3 42.41,94.7 94.72,94.7 h 1652.07 c 52.31,0 94.72,-42.4 94.72,-94.7 v -1652.1 c 0,-52.3 -42.41,-94.7 -94.72,-94.7"
         style="fill:#19a880;fill-opacity:1;fill-rule:nonzero;stroke:none"
         id="path112" /><path
         d="m 8897.46,11937.6 -885.2,1026 313.99,270.9 574.15,-665.5 1169.5,1330.3 311.4,-273.8 -1483.84,-1687.9"
         style="fill:#f2be33;fill-opacity:1;fill-rule:nonzero;stroke:none"
         id="path114" /><path
         d="m 14566.9,13200 h -3810.5 v 339.6 h 3810.5 V 13200"
         style="fill:#b4f0de;fill-opacity:1;fill-rule:nonzero;stroke:none"
         id="path116" /><path
         d="m 16879.7,13200 h -2052.6 v 339.6 h 2052.6 V 13200"
         style="fill:#b4f0de;fill-opacity:1;fill-rule:nonzero;stroke:none"
         id="path118" /><path
         d="m 12943,12525 h -2186.6 v 339.6 H 12943 V 12525"
         style="fill:#b4f0de;fill-opacity:1;fill-rule:nonzero;stroke:none"
         id="path120" /><path
         d="m 15550.3,11850 h -4793.9 v 339.5 h 4793.9 V 11850"
         style="fill:#b4f0de;fill-opacity:1;fill-rule:nonzero;stroke:none"
         id="path122" /><path
         d="m 16879.7,12525 h -3691.2 v 339.6 h 3691.2 V 12525"
         style="fill:#b4f0de;fill-opacity:1;fill-rule:nonzero;stroke:none"
         id="path124" /><path
         d="M 8333.22,8244.6 H 9795.86 V 9707.2 H 8333.22 Z M 9890.58,8055.1 H 8238.51 c -52.31,0 -94.72,42.4 -94.72,94.7 v 1652.1 c 0,52.3 42.41,94.7 94.72,94.7 h 1652.07 c 52.31,0 94.72,-42.4 94.72,-94.7 V 8149.8 c 0,-52.3 -42.41,-94.7 -94.72,-94.7"
         style="fill:#19a880;fill-opacity:1;fill-rule:nonzero;stroke:none"
         id="path126" /><path
         d="m 8897.46,8170.3 -885.2,1026 313.99,270.9 574.15,-665.5 1169.5,1330.3 311.4,-273.8 -1483.84,-1687.9"
         style="fill:#f2be33;fill-opacity:1;fill-rule:nonzero;stroke:none"
         id="path128" /><path
         d="m 16111.1,9480.3 h -5354.7 v 339.6 h 5354.7 v -339.6"
         style="fill:#b4f0de;fill-opacity:1;fill-rule:nonzero;stroke:none"
         id="path130" /><path
         d="m 14138.5,8805.3 h -3382.1 v 339.6 h 3382.1 v -339.6"
         style="fill:#b4f0de;fill-opacity:1;fill-rule:nonzero;stroke:none"
         id="path132" /><path
         d="m 12087.7,8130.3 h -1331.3 v 339.6 h 1331.3 v -339.6"
         style="fill:#b4f0de;fill-opacity:1;fill-rule:nonzero;stroke:none"
         id="path134" /><path
         d="m 16852.3,8130.3 h -4548.2 v 339.6 h 4548.2 v -339.6"
         style="fill:#b4f0de;fill-opacity:1;fill-rule:nonzero;stroke:none"
         id="path136" /><path
         d="m 16852.3,8805.3 h -2438.9 v 339.6 h 2438.9 v -339.6"
         style="fill:#b4f0de;fill-opacity:1;fill-rule:nonzero;stroke:none"
         id="path138" /><path
         d="M 8333.22,4493.8 H 9795.86 V 5956.4 H 8333.22 Z M 9890.58,4304.4 H 8238.51 c -52.31,0 -94.72,42.4 -94.72,94.7 v 1652.1 c 0,52.3 42.41,94.7 94.72,94.7 h 1652.07 c 52.31,0 94.72,-42.4 94.72,-94.7 V 4399.1 c 0,-52.3 -42.41,-94.7 -94.72,-94.7"
         style="fill:#19a880;fill-opacity:1;fill-rule:nonzero;stroke:none"
         id="path140" /><path
         d="m 8897.46,4419.5 -885.2,1026 313.99,270.9 574.15,-665.4 1169.5,1330.2 311.4,-273.8 -1483.84,-1687.9"
         style="fill:#f2be33;fill-opacity:1;fill-rule:nonzero;stroke:none"
         id="path142" /><path
         d="m 12399.4,5744.1 h -1643 v 339.6 h 1643 v -339.6"
         style="fill:#b4f0de;fill-opacity:1;fill-rule:nonzero;stroke:none"
         id="path144" /><path
         d="m 16836.5,5744.1 h -4255.3 v 339.6 h 4255.3 v -339.6"
         style="fill:#b4f0de;fill-opacity:1;fill-rule:nonzero;stroke:none"
         id="path146" /><path
         d="m 15199,5069.1 h -4442.6 v 339.6 H 15199 v -339.6"
         style="fill:#b4f0de;fill-opacity:1;fill-rule:nonzero;stroke:none"
         id="path148" /><path
         d="m 13581.1,4394.1 h -2824.7 v 339.5 h 2824.7 v -339.5"
         style="fill:#b4f0de;fill-opacity:1;fill-rule:nonzero;stroke:none"
         id="path150" /><path
         d="m 15962.3,4394.1 h -2192 v 339.5 h 2192 v -339.5"
         style="fill:#b4f0de;fill-opacity:1;fill-rule:nonzero;stroke:none"
         id="path152" /><path
         d="m 16852.3,5069.1 h -1398.9 v 339.6 h 1398.9 v -339.6"
         style="fill:#b4f0de;fill-opacity:1;fill-rule:nonzero;stroke:none"
         id="path154" /><path
         d="m 21215,11183 c -24.5,335.8 -300.6,323 -300.6,323 -196.6,10 -1004.9,-370.3 -1503.2,-686.7 -9.6,-6.1 -19.1,-12.3 -28.5,-18.3 -84.2,404.6 -428.3,1038.6 -471.7,1378.6 -0.3,2.2 -0.7,4.2 -1,6.4 -91.7,-91.1 -198.6,-173.2 -283.3,-270.7 6.8,-11.2 11,-18.3 11.3,-19.3 90.7,-316.4 134.2,-1540.9 424.2,-1737.8 203.4,-138.1 1804.8,597.2 1804.8,597.2 0,0 370,127.9 348,427.6"
         style="fill:#f37a50;fill-opacity:1;fill-rule:nonzero;stroke:none"
         id="path156" /><path
         d="m 24516.5,12158.5 -8661.7,-1944.9 -321.4,1435.8 8661.7,1944.9 321.4,-1435.8"
         style="fill:#e8ad10;fill-opacity:1;fill-rule:nonzero;stroke:none"
         id="path158" /><path
         d="m 25282.4,12329.9 -765.9,-171.5 -321.4,1435.8 765.9,171.5 c 270.3,60.5 538.5,-109.6 599,-379.9 l 102.3,-456.9 c 60.5,-270.3 -109.6,-538.5 -379.9,-599"
         style="fill:#e62552;fill-opacity:1;fill-rule:nonzero;stroke:none"
         id="path160" /><path
         d="m 24555.2,12167.1 -684.9,-153.3 -321.8,1437.3 685,153.3 321.7,-1437.3"
         style="fill:#f3c8b9;fill-opacity:1;fill-rule:nonzero;stroke:none"
         id="path162" /><path
         d="m 24520.1,12124.4 -30.4,-6.8 c -23.5,-5.3 -46.8,9.5 -52,33 l -319.2,1425.8 c -5.2,23.4 9.5,46.7 33,52 l 30.4,6.8 c 23.5,5.2 46.8,-9.5 52.1,-33 l 319.1,-1425.8 c 5.3,-23.5 -9.5,-46.8 -33,-52"
         style="fill:#f3ae9c;fill-opacity:1;fill-rule:nonzero;stroke:none"
         id="path164" /><path
         d="m 24191.7,12046.1 -30.5,-6.8 c -23.4,-5.3 -46.7,9.5 -52,33 l -319.2,1425.8 c -5.2,23.4 9.6,46.7 33,52 l 30.5,6.8 c 23.5,5.3 46.7,-9.5 52,-33 l 319.2,-1425.8 c 5.2,-23.5 -9.5,-46.8 -33,-52"
         style="fill:#f3ae9c;fill-opacity:1;fill-rule:nonzero;stroke:none"
         id="path166" /><path
         d="m 23846.1,11972.4 -30.4,-6.8 c -23.5,-5.2 -46.8,9.6 -52,33 l -319.2,1425.8 c -5.3,23.5 9.5,46.8 33,52 l 30.4,6.9 c 23.5,5.2 46.8,-9.5 52.1,-33 l 319.1,-1425.8 c 5.3,-23.5 -9.5,-46.8 -33,-52.1"
         style="fill:#f3ae9c;fill-opacity:1;fill-rule:nonzero;stroke:none"
         id="path168" /><path
         d="m 15888.6,10975.2 c -88.8,396.4 -247.2,698.4 -353.8,674.6 -0.5,-0.1 -0.9,-0.4 -1.4,-0.5 v 0.1 l -0.5,-0.3 c -10.5,-2.7 -20,-8.6 -28.6,-17.3 l -1075.4,-651.9 -766.4,-464.6 c -25.9,-15.7 -17.2,-55.3 12.9,-58.6 l 886.2,-98.8 1258.9,-140.4 c 11.5,-4.3 22.6,-5.6 33.3,-3.7 l 1,-0.1 -0.1,0.2 c 0.5,0.1 1,0.1 1.5,0.2 106.6,23.9 121.1,364.6 32.4,761.1"
         style="fill:#f3c8b9;fill-opacity:1;fill-rule:nonzero;stroke:none"
         id="path170" /><path
         d="m 14536,10688.2 c 27.5,-122.9 35.2,-238.9 25.6,-330.3 l -886.2,98.8 c -30.1,3.3 -38.8,42.9 -12.9,58.6 l 766.4,464.6 c 43.3,-76.7 81.6,-178 107.1,-291.7"
         style="fill:#f2be33;fill-opacity:1;fill-rule:nonzero;stroke:none"
         id="path172" /><path
         d="m 20175.5,11064.4 c -250,325 -225,975.1 -37.5,1212.6 187.5,237.5 196.5,416.5 87.5,650 -262.5,562.5 750,1025 1200.1,975 450,-50 1325,-250 1350,-912.5 25,-662.5 62.5,-700 362.5,-862.5 300,-162.5 412.5,-675.1 300,-912.6 -112.5,-237.5 -512.5,-562.5 -350,-825 162.5,-262.5 362.5,-600 137.5,-887.5 -225,-287.5 -462.5,-837.6 -637.5,-912.6 -175,-75 -712.5,-12.5 -712.5,-12.5 l -1700.1,2487.6"
         style="fill:#08392c;fill-opacity:1;fill-rule:nonzero;stroke:none"
         id="path174" /><path
         d="m 21399.8,11917.6 484.9,72.6 -38.6,-450.1 c 0,0 -245.6,-442.5 -478.6,-366.3 -233,76.2 -119.4,271.7 -119.4,271.7 l 151.7,472.1"
         style="fill:#f37a50;fill-opacity:1;fill-rule:nonzero;stroke:none"
         id="path176" /><path
         d="m 22090.8,12602.6 c -18.1,-537.2 -279.1,-872.8 -701,-858.5 -422,14.2 -749.3,461.3 -731.1,998.6 18.1,537.3 374.9,961.3 796.9,947 422,-14.3 653.4,-549.8 635.2,-1087.1"
         style="fill:#f37a50;fill-opacity:1;fill-rule:nonzero;stroke:none"
         id="path178" /><path
         d="m 21525,12743.9 c -6,1 -11.6,4 -15.9,8.9 -62.6,71.1 -170.6,56.6 -171.7,56.5 -15,-2.2 -29.1,8.3 -31.3,23.3 -2.2,15.1 15.2,45.2 44,46.4 5.7,0.3 120.7,15.8 203.4,-78.2 10.1,-11.5 6,-40.4 -5.4,-50.5 -6.6,-5.7 -15.1,-7.9 -23.1,-6.4"
         style="fill:#201d40;fill-opacity:1;fill-rule:nonzero;stroke:none"
         id="path180" /><path
         d="m 20695.2,12684.7 c -2.9,0.7 -5.7,2 -8.3,3.7 -12.6,8.5 -16,25.7 -7.5,38.4 65.9,98.4 174.7,85.4 179.3,84.8 15.1,-2 25.7,-15.9 23.8,-31.1 -2,-15.1 -15.8,-25.7 -30.9,-23.8 -3.6,0.5 -79.9,8.6 -126.3,-60.7 -6.8,-10.1 -19,-14.3 -30.1,-11.3"
         style="fill:#201d40;fill-opacity:1;fill-rule:nonzero;stroke:none"
         id="path182" /><path
         d="m 21060.9,12496.3 c -29.7,-46.4 -54.5,-93 -85.8,-122.9 -10.6,-10.1 -11.1,-27 -1.6,-38 39.5,-45.5 132.8,-70.6 189.3,-82.1 8.2,-1.6 12.4,9.6 5.1,13.7 -61.8,35.3 -91.2,64.5 -104.5,81.2 -6.5,8.3 -8.6,19.2 -5.8,29.4 6.4,23.4 18.9,71 26.1,109.8 2.5,13.4 -15.4,20.4 -22.8,8.9"
         style="fill:#de623c;fill-opacity:1;fill-rule:nonzero;stroke:none"
         id="path184" /><path
         d="m 21454.1,12136.8 c 8.7,17.4 -7.4,36.7 -26,31.1 -47.3,-14.2 -125.8,-36 -202,-49.4 -76.2,-13.3 -157.5,-19.4 -206.8,-22.1 -19.4,-1.1 -27.9,-24.7 -13.8,-38.1 43.3,-41.1 128.3,-100.2 245.1,-79.7 116.8,20.4 176.7,104.8 203.5,158.2"
         style="fill:#ffffff;fill-opacity:1;fill-rule:nonzero;stroke:none"
         id="path186" /><path
         d="m 22375.2,12660.4 c -493.4,-33.6 -1215.4,444.1 -1321.8,684 31.4,320.5 258,525.4 566,442.7 307.9,-82.7 881.7,-705.6 755.8,-1126.7"
         style="fill:#08392c;fill-opacity:1;fill-rule:nonzero;stroke:none"
         id="path188" /><path
         d="m 21179.9,13231.4 c 0,0 -258.3,-330.1 -546.4,-431.6 64.1,358 108.2,629 276,734.2 167.8,105.2 362,142.3 362,142.3 l -91.6,-444.9"
         style="fill:#08392c;fill-opacity:1;fill-rule:nonzero;stroke:none"
         id="path190" /><path
         d="m 21922.4,12755.9 c -82.3,-96 -85.3,-228.3 -6.7,-295.6 78.6,-67.4 208.9,-44.1 291.2,51.9 82.2,96 85.2,228.4 6.6,295.7 -78.5,67.3 -208.9,44 -291.1,-52"
         style="fill:#f37a50;fill-opacity:1;fill-rule:nonzero;stroke:none"
         id="path192" /><path
         d="m 22030.9,12507.9 c -4,1.1 -7.8,3.1 -11.2,6.1 -47.7,42.3 -62.7,97.7 -40,148.1 23.2,51.8 79.1,84.7 133,78.3 15.1,-1.8 25.9,-15.6 24.1,-30.7 -1.8,-15.2 -15.5,-26 -30.7,-24.2 -29.5,3.5 -62.8,-16.7 -76,-46 -12.6,-28.1 -3.2,-58 26.3,-84.2 11.4,-10.1 12.5,-27.5 2.4,-39 -7.2,-8.1 -18.1,-11 -27.9,-8.4"
         style="fill:#de623c;fill-opacity:1;fill-rule:nonzero;stroke:none"
         id="path194" /><path
         d="m 20905.8,12592.3 c 4.7,-41.4 -25,-78.8 -66.4,-83.5 -41.4,-4.7 -78.7,25 -83.5,66.4 -4.7,41.4 25.1,78.8 66.5,83.5 41.4,4.7 78.7,-25 83.4,-66.4"
         style="fill:#000000;fill-opacity:1;fill-rule:nonzero;stroke:none"
         id="path196" /><path
         d="m 21471.6,12665.4 c 5,-44.2 -26.7,-84.1 -70.8,-89.1 -44.2,-5 -84.1,26.7 -89.1,70.9 -5,44.1 26.7,84 70.9,89 44.1,5.1 84,-26.7 89,-70.8"
         style="fill:#000000;fill-opacity:1;fill-rule:nonzero;stroke:none"
         id="path198" /><path
         d="m 20945.8,1726.2 c 32.5,323.8 -134.6,2788.4 -134.6,2788.4 -472.5,2166.7 -286.9,3717.7 -286.9,3717.7 l 812.2,-57.1 320.1,-1224.4 -151.9,-2044.7 c 0,0 57,-157.4 87.1,-283.3 163.1,-682.5 0.7,-1498.2 -99.8,-2041.9 -46.5,-251.9 -118.9,-781.4 -120.8,-901.8 l 63.7,-204.2 -988.4,-483.002 c 303.5,311.702 490,641.602 499.3,734.302"
         style="fill:#f37a50;fill-opacity:1;fill-rule:nonzero;stroke:none"
         id="path200" /><path
         d="m 21138,1484.8 c -66.1,193 -212,216.1 -212,216.1 -288.7,-402.6 -983.5,-145.7 -966.6,-694.8 1060.9,-5 1501.7,-17.1 1501.7,-17.1 0,126.1 -17.6,425.6 -40.7,543 l -55.4,-9.9 -227,-37.3"
         style="fill:#08392c;fill-opacity:1;fill-rule:nonzero;stroke:none"
         id="path202" /><path
         d="m 21220.5,8074.7 1144.1,157.6 c 437.7,-990.3 580.4,-2714.4 699.2,-3328.6 476.9,-799.6 628.3,-3224.6 628.3,-3224.6 l 61.8,-244.5 -611.8,-380.9 c -196.6,151.6 109,473.7 128.6,564.8 29.6,137 -926,2827.2 -926,2827.2 l -102.1,255.2 c -1167.2,1927.8 -1358.7,3385.2 -1358.7,3385.2 l 336.6,-11.4"
         style="fill:#f37a50;fill-opacity:1;fill-rule:nonzero;stroke:none"
         id="path204" /><path
         d="m 23471.5,1387.4 c -66.1,193 -212,216.1 -212,216.1 -288.7,-402.6 -983.5,-145.7 -966.6,-694.801 1060.9,-5 1501.7,-17.097 1501.7,-17.097 0,126.098 -17.6,425.598 -40.7,542.998 l -55.4,-9.9 -227,-37.3"
         style="fill:#08392c;fill-opacity:1;fill-rule:nonzero;stroke:none"
         id="path206" /><path
         d="m 23727.1,5312.6 c -114.3,382.3 -444,2822.3 -1452.7,3566.4 l -1735.8,-182.9 c -401.2,-649.3 -487.9,-1909.5 -539.3,-3460.6 1619.7,625.6 1516.8,-711.3 3727.8,77.1"
         style="fill:#08392c;fill-opacity:1;fill-rule:nonzero;stroke:none"
         id="path208" /><path
         d="m 20517.4,9124.4 c 0,380.1 -329.5,949.6 -171.5,1333.4 115,308.6 341,1005.1 587.2,1052.1 99.9,19.1 209.6,-0.1 348,38.1 0,0 -72.3,-322.4 90.4,-335.4 313,-25.1 477.5,376.2 477.5,376.2 168.8,16.1 757.4,-159.5 757.1,-223.1 -1.9,-497.9 -220.9,-1303.1 -353.2,-1841.5 -24.5,-274.1 -5.1,-486.8 22.4,-641.9 50.1,-161.7 111.3,-254.3 111.7,-289.2 0,0 -1160.3,-394.2 -1898.6,12.2 0,0 29,262.4 29,519.1"
         style="fill:#1cce9d;fill-opacity:1;fill-rule:nonzero;stroke:none"
         id="path210" /><path
         d="m 22974.3,8633.1 c -134.1,-291.1 -373.2,-256.3 -441.8,-237.2 -74.7,20.9 -177.3,19.1 -216.2,-32.8 -39.9,-53.4 -60.8,-112.9 -114.2,-94.4 -74.4,25.8 -1.9,218 150.4,225.8 0,0 -119.6,-4.1 -159,-64.7 -43.2,-66.4 -75.2,-115.7 -120.7,-108.8 -24.4,3.7 -46.4,31.2 -38.3,64.3 -28.4,-24 -93.1,-44.6 -98.8,0.7 -17.9,143.4 81,328.6 287.4,372.2 -246.1,37.4 -263.7,-181.5 -340.6,-185.7 -46.2,-2.5 -50.3,54.6 -40.8,91.5 30.6,118.3 128.2,208.1 247.1,236 118.9,28 301.5,-5.5 370,-106.7 0,0 143.8,-52.2 201.8,35.8 l 313.7,-196"
         style="fill:#f37a50;fill-opacity:1;fill-rule:nonzero;stroke:none"
         id="path212" /><path
         d="m 22581.8,11395.5 c 0,0 826.7,-484.3 1227.1,-1645.1 -359.6,-398.6 -662.5,-101.2 -662.5,-101.2 l -801,791.5 c 0,0 -235.4,289.2 -122.9,642.5 98.1,307.7 359.3,312.3 359.3,312.3"
         style="fill:#f37a50;fill-opacity:1;fill-rule:nonzero;stroke:none"
         id="path214" /><path
         d="m 22660.6,8829.1 499.2,780.5 c 0,0 136.5,324.7 649.1,140.8 24.8,-275.6 -14.7,-533.2 -840.6,-1118.7 -179,32.2 -307.7,197.4 -307.7,197.4"
         style="fill:#f37a50;fill-opacity:1;fill-rule:nonzero;stroke:none"
         id="path216" /><path
         d="m 22581.8,11395.5 c 0,0 826.7,-484.3 1227.1,-1645.1 -359.6,-398.6 -693.7,-70.3 -693.7,-70.3 l -769.8,760.6 c 0,0 -235.4,289.2 -122.9,642.5 98.1,307.7 359.3,312.3 359.3,312.3"
         style="fill:#f37a50;fill-opacity:1;fill-rule:nonzero;stroke:none"
         id="path218" /><path
         d="m 18682.5,12400.7 c 7.9,-1.8 15,-5 21.8,-8.9 0.3,1.3 0.4,2.6 0.7,4 17.2,79.3 77.3,133.5 134.2,121.1 9.3,-2 17.9,-5.9 25.8,-11 27.1,43.9 69.2,69.2 109.8,60.3 16.1,-3.5 30.2,-12.1 41.8,-24.3 24.2,45.7 70,72.7 115.4,62.8 56.9,-12.4 91.1,-77.3 76.3,-145 -14.6,-67.6 -72.7,-112.4 -129.5,-100.1 -14.4,3.2 -27.3,9.7 -38.4,18.7 -22.6,-67 -76.5,-110.3 -127.9,-99.1 -9.4,2 -18,5.8 -25.9,10.9 -27.1,-43.9 -69.2,-69.1 -109.8,-60.3 -15,3.3 -28.2,10.9 -39.3,21.7 -19.6,-41.5 -60,-66.5 -99.9,-57.8 -48.1,10.5 -76.9,65.3 -64.5,122.4 12.4,57.2 61.4,95 109.4,84.6"
         style="fill:#f37a50;fill-opacity:1;fill-rule:nonzero;stroke:none"
         id="path220" /></g></g></svg>
