<?xml version="1.0" encoding="UTF-8" standalone="no"?>
<svg
   version="1.1"
   id="svg2"
   xml:space="preserve"
   width="4666.6665"
   height="2666.6667"
   viewBox="0 0 4666.6665 2666.6667"
   sodipodi:docname="4584.svg"
   inkscape:version="1.1 (c4e8f9ed74, 2021-05-24)"
   xmlns:inkscape="http://www.inkscape.org/namespaces/inkscape"
   xmlns:sodipodi="http://sodipodi.sourceforge.net/DTD/sodipodi-0.dtd"
   xmlns="http://www.w3.org/2000/svg"
   xmlns:svg="http://www.w3.org/2000/svg"
   xmlns:rdf="http://www.w3.org/1999/02/22-rdf-syntax-ns#"
   xmlns:cc="http://creativecommons.org/ns#"
   xmlns:dc="http://purl.org/dc/elements/1.1/"><metadata
     id="metadata8"><rdf:RDF><cc:Work
         rdf:about=""><dc:format>image/svg+xml</dc:format><dc:type
           rdf:resource="http://purl.org/dc/dcmitype/StillImage" /></cc:Work></rdf:RDF></metadata><defs
     id="defs6"><clipPath
       clipPathUnits="userSpaceOnUse"
       id="clipPath42"><path
         d="m 7852.53,13272.4 c -756.66,0 -1370.05,613.4 -1370.05,1370.1 0,756.6 613.39,1370 1370.05,1370 756.66,0 1370.05,-613.4 1370.05,-1370 0,-756.7 -613.39,-1370.1 -1370.05,-1370.1 z m 0,3956.3 c -1428.34,0 -2586.24,-1157.9 -2586.24,-2586.2 0,-1428.4 1157.9,-2586.3 2586.24,-2586.3 1428.34,0 2586.27,1157.9 2586.27,2586.3 0,1428.3 -1157.93,2586.2 -2586.27,2586.2 z"
         id="path40" /></clipPath></defs><sodipodi:namedview
     pagecolor="#ffffff"
     bordercolor="#666666"
     borderopacity="1"
     objecttolerance="10"
     gridtolerance="10"
     guidetolerance="10"
     inkscape:pageopacity="0"
     inkscape:pageshadow="2"
     inkscape:window-width="1920"
     inkscape:window-height="1056"
     id="namedview4"
     inkscape:pagecheckerboard="0"
     showgrid="false"
     inkscape:zoom="0.26700001"
     inkscape:cx="2301.498"
     inkscape:cy="1481.2734"
     inkscape:window-x="0"
     inkscape:window-y="24"
     inkscape:window-maximized="0"
     inkscape:current-layer="g12" /><g
     id="g10"
     inkscape:groupmode="layer"
     inkscape:label="ink_ext_XXXXXX"
     transform="matrix(1.3333333,0,0,-1.3333333,0,2666.6667)"><g
       id="g12"
       transform="scale(0.1)"><path
         d="M 35000,0 H 0 V 20000 H 35000 V 0"
         style="fill:#ffffff;fill-opacity:1;fill-rule:nonzero;stroke:none"
         id="path14" /><path
         d="m 4046.35,2827.3 c 0,0 -3503.823,2785.4 -1574.6,6642.8 1929.22,3857.3 -760,5193 1110.76,5987.5 1870.76,794.5 2905.45,-936 8084.59,501.6 5179.2,1437.6 15584.3,3825.6 17961,2047.7 2376.6,-1777.8 -4420.7,-6661.7 -1209.1,-6624.8 6498.7,74.7 5273.7,-6607.7 2130.3,-8764 C 28955.4,1524.7 4046.35,2827.3 4046.35,2827.3"
         style="fill:#e7f3fe;fill-opacity:1;fill-rule:nonzero;stroke:none"
         id="path16" /><path
         d="M 32436.9,2474.8 C 27638.4,4426.4 4806.5,3574.5 3325.19,2995.4 c -1481.31,-579.2 288.48,-968.9 4100.9,-754.6 3812.41,214.4 8717.71,-23.8 12931.01,-138.6 4213.2,-114.7 15190.5,-892.6 12079.8,372.6"
         style="fill:#35e2ae;fill-opacity:0.53079945;fill-rule:nonzero;stroke:none"
         id="path18" /><path
         d="m 22965.8,12694.8 c -738.8,0 -1337.8,598.9 -1337.8,1337.7 0,738.9 599,1337.8 1337.8,1337.8 738.8,0 1337.8,-598.9 1337.8,-1337.8 0,-738.8 -599,-1337.7 -1337.8,-1337.7 z m 3389.2,954.8 c 14,125.7 21.5,253.4 21.5,382.9 0,68.4 -2.2,136.1 -6.2,203.5 l -632.8,204.7 c -38.9,266.8 -115.4,521.3 -224,758.2 l 419.6,516.3 c -97.1,170.7 -208.4,332.4 -332.4,483.1 l -632.8,-206.5 c -184.5,188.5 -395.3,351 -626.5,481.6 l 36,664.9 c -176.6,80.4 -361.3,146.1 -552.5,195.7 l -390.8,-539.2 c -152.3,25.6 -308.7,39.2 -468.3,39.2 -108.8,0 -216.1,-6.5 -321.7,-18.5 l -361.8,559.2 c -193.8,-39.4 -381.7,-95.3 -562,-166.1 l 0.8,-665.9 c -238.3,-118.4 -457.3,-269.6 -651.1,-447.9 l -620.9,239.6 c -131.9,-144.2 -251.7,-299.6 -357.5,-464.9 l 391.8,-537.8 c -121.3,-231.3 -211.3,-481.5 -264.2,-745.2 l -642.6,-171 c -14,-125.8 -21.5,-253.5 -21.5,-383 0,-68.3 2.2,-136.1 6.2,-203.4 l 632.8,-204.7 c 38.9,-266.8 115.4,-521.4 224,-758.2 l -419.6,-516.3 c 97.1,-170.8 208.4,-332.4 332.4,-483.1 l 632.9,206.5 c 184.4,-188.5 395.2,-351 626.4,-481.6 l -36,-664.9 c 176.6,-80.4 361.3,-146.2 552.5,-195.8 l 390.8,539.3 c 152.3,-25.7 308.7,-39.2 468.3,-39.2 108.8,0 216.1,6.4 321.7,18.5 l 361.7,-559.2 c 193.9,39.4 381.8,95.3 562.1,166.1 l -0.8,665.8 c 238.3,118.4 457.3,269.6 651.1,447.9 l 620.9,-239.5 c 131.9,144.1 251.7,299.6 357.5,464.8 l -391.8,537.9 c 121.3,231.3 211.3,481.5 264.2,745.2 l 642.6,171"
         style="fill:#8ce8cd;fill-opacity:1;fill-rule:nonzero;stroke:none"
         id="path20" /><path
         d="m 24790.4,12506.8 c -11.3,0 -22.6,3.8 -32,11.6 -21.2,17.6 -24.1,49.2 -6.5,70.4 336.3,404.3 521.4,917 521.4,1443.7 0,252.3 -41.2,499.9 -122.6,736.2 -9,26.1 4.9,54.5 31,63.5 26.1,9 54.6,-4.9 63.6,-31 84.9,-246.7 128,-505.3 128,-768.7 0,-550 -193.3,-1085.4 -544.5,-1507.7 -9.9,-11.9 -24.1,-18 -38.4,-18"
         style="fill:#ffffff;fill-opacity:1;fill-rule:nonzero;stroke:none"
         id="path22" /><path
         d="m 24596.7,15664.2 c -12.3,0 -24.6,4.6 -34.3,13.6 -225.9,212.8 -487.6,374 -777.8,479.3 -26,9.4 -39.4,38.1 -30,64 9.5,26 38.2,39.4 64.1,30 303.1,-110 576.4,-278.3 812.3,-500.5 20.1,-18.9 21,-50.5 2.1,-70.6 -9.8,-10.5 -23.1,-15.8 -36.4,-15.8"
         style="fill:#ffffff;fill-opacity:1;fill-rule:nonzero;stroke:none"
         id="path24" /><path
         d="m 22446.9,16221.8 c -22.3,0 -42.7,15.1 -48.4,37.8 -6.8,26.7 9.4,53.9 36.2,60.7 188.3,47.5 383.2,71.6 579.2,71.6 27.6,0 50,-22.4 50,-50 0,-27.6 -22.4,-50 -50,-50 -187.8,0 -374.4,-23.1 -554.7,-68.6 -4.1,-1 -8.2,-1.5 -12.3,-1.5"
         style="fill:#ffffff;fill-opacity:1;fill-rule:nonzero;stroke:none"
         id="path26" /><path
         d="m 28498.4,12116.3 c -511.7,0 -926.6,414.9 -926.6,926.6 0,511.7 414.9,926.6 926.6,926.6 511.8,0 926.6,-414.9 926.6,-926.6 0,-511.7 -414.8,-926.6 -926.6,-926.6 z m 2347.5,661.4 c 9.8,87 14.9,175.5 14.9,265.2 0,47.3 -1.5,94.3 -4.3,140.9 l -438.2,141.8 c -27,184.8 -80,361.1 -155.2,525.1 l 290.6,357.7 c -67.2,118.2 -144.3,230.2 -230.2,334.6 l -438.4,-143 c -127.7,130.5 -273.7,243.1 -433.9,333.5 l 24.9,460.5 c -122.3,55.7 -250.2,101.3 -382.6,135.7 l -270.7,-373.6 c -105.5,17.8 -213.8,27.2 -324.4,27.2 -75.3,0 -149.6,-4.5 -222.8,-12.8 l -250.6,387.3 c -134.2,-27.3 -264.3,-66 -389.3,-115 l 0.6,-461.2 c -165,-82 -316.7,-186.8 -451,-310.3 l -430,166 c -91.4,-99.9 -174.4,-207.6 -247.7,-322 l 271.4,-372.6 c -84,-160.2 -146.3,-333.5 -183,-516.1 l -445.1,-118.5 c -9.7,-87.1 -14.9,-175.5 -14.9,-265.2 0,-47.3 1.6,-94.3 4.3,-140.9 l 438.3,-141.8 c 27,-184.8 80,-361.1 155.2,-525.2 l -290.6,-357.6 c 67.2,-118.3 144.3,-230.2 230.2,-334.6 l 438.3,143 c 127.8,-130.5 273.8,-243.1 434,-333.5 l -25,-460.6 c 122.3,-55.6 250.2,-101.2 382.7,-135.6 l 270.6,373.5 c 105.5,-17.7 213.9,-27.1 324.4,-27.1 75.4,0 149.7,4.4 222.8,12.8 l 250.6,-387.3 c 134.3,27.3 264.4,66 389.3,115 l -0.5,461.2 c 165,82 316.7,186.8 451,310.2 l 430,-165.9 c 91.4,99.9 174.3,207.5 247.6,322 l -271.3,372.6 c 84,160.2 146.3,333.5 182.9,516.1 l 445.1,118.5"
         style="fill:#8ce8cd;fill-opacity:1;fill-rule:nonzero;stroke:none"
         id="path28" /><path
         d="m 29762.2,11970.8 c -11.3,0 -22.6,3.7 -32,11.5 -21.2,17.7 -24.1,49.2 -6.4,70.4 230.6,277.3 357.5,628.9 357.5,990.2 0,173 -28.2,342.9 -84.1,504.9 -8.9,26.1 4.9,54.5 31,63.5 26.2,9 54.6,-4.9 63.6,-31 59.4,-172.5 89.5,-353.3 89.5,-537.4 0,-384.6 -135.1,-758.9 -380.6,-1054.1 -9.9,-11.9 -24.2,-18 -38.5,-18"
         style="fill:#ffffff;fill-opacity:1;fill-rule:nonzero;stroke:none"
         id="path30" /><path
         d="m 29628,14157.7 c -12.2,0 -24.6,4.5 -34.2,13.6 -155,145.9 -334.5,256.5 -533.5,328.7 -25.9,9.4 -39.3,38.1 -29.9,64.1 9.4,25.9 38.1,39.3 64,29.9 211.9,-76.9 403,-194.6 567.9,-349.9 20.1,-18.9 21.1,-50.6 2.2,-70.7 -9.9,-10.4 -23.2,-15.7 -36.5,-15.7"
         style="fill:#ffffff;fill-opacity:1;fill-rule:nonzero;stroke:none"
         id="path32" /><path
         d="m 28139,14543.9 c -22.3,0 -42.7,15.1 -48.4,37.8 -6.8,26.7 9.4,53.9 36.2,60.7 131.7,33.2 267.9,50.1 405,50.1 27.6,0 50,-22.4 50,-50 0,-27.6 -22.4,-50 -50,-50 -128.8,0 -256.8,-15.9 -380.5,-47.1 -4.1,-1 -8.2,-1.5 -12.3,-1.5"
         style="fill:#ffffff;fill-opacity:1;fill-rule:nonzero;stroke:none"
         id="path34" /><g
         id="g36"><g
           id="g38"
           clip-path="url(#clipPath42)"><path
             d="m 10190,13213.1 -2337.47,1429.4 -422.81,-2707.1 c 1098.08,-173.1 2187.13,341.4 2760.28,1277.7"
             style="fill:#a2dff2;fill-opacity:1;fill-rule:nonzero;stroke:none"
             id="path44" /><path
             d="m 10192.5,13216.3 c 6.3,10.3 14.5,24.5 14.2,24 493.6,826.9 513.6,1854 60.6,2697.1 -827.14,-433.4 -334.55,-170.1 -2414.77,-1294.9 2341.27,-1431.8 1977.7,-1211 2339.97,-1426.2"
             style="fill:#9cd499;fill-opacity:1;fill-rule:nonzero;stroke:none"
             id="path46" /><path
             d="m 5283.04,15589.3 2569.49,-946.8 2410.37,1303.4 c -1127.46,2085.1 -4162.36,1835 -4979.86,-356.6"
             style="fill:#8ce8cd;fill-opacity:1;fill-rule:nonzero;stroke:none"
             id="path48" /><path
             d="m 7429.72,11935.4 422.81,2707.1 -2569.49,946.8 c -611.02,-1638.1 473.48,-3390.1 2146.68,-3653.9"
             style="fill:#f7da8d;fill-opacity:1;fill-rule:nonzero;stroke:none"
             id="path50" /><path
             d="m 7533.79,12012.6 387.54,2481.2 1008.51,-616.8 c 406.61,-248.7 639.21,-391 785.66,-480.3 l 348.2,-212.9 c -555.41,-842.3 -1531.25,-1294 -2529.91,-1171.2 z m -1969.73,1304.3 c -384.77,658.6 -465.56,1439.1 -226.02,2155.2 l 1692.56,-623.7 720.61,-265.5 -397.03,-2542 c -749.82,144.7 -1398.62,605.8 -1790.12,1276 z m -162.53,2325.6 c 387.4,943 1252.61,1568.1 2279,1639.4 1014.11,70.5 1947.53,-425.9 2457.87,-1300 l -711.88,-385 c -146.97,-79 -352.44,-190.2 -696.41,-376.3 -220.37,-119.3 -497.68,-269.3 -852.84,-461.4 l -21.95,-11.9 -71.59,43.8 -3.9,-24.9 -1125.75,414.8 z m 4638.07,73.1 c 53.9,28.2 115.6,60.4 188.8,98.8 385.3,-780.6 360.1,-1714.6 -68.2,-2473.2 0,0 -17.3,10.2 -17.3,10.2 -95.5,56.6 -137,81.2 -327.33,197.2 l -1780.85,1089 1478.33,799.4 c 217.09,116.8 306.08,163.4 526.55,278.6 z m 274.1,-2471.6 c 464.5,816.5 491,1824.7 70.9,2664.3 l 1.5,0.8 -43.2,80 c -0.9,1.6 -1.8,3.2 -2.7,4.8 l -35.4,65.8 -1.3,-0.7 c -272.8,473.9 -661.67,851.8 -1129.42,1095.5 -458.06,238.6 -978.8,345.4 -1506.15,308.8 -1098.67,-76.3 -2024.32,-747 -2436.91,-1758 l -1.51,0.6 -31.64,-84.9 -31.9,-85.5 1.52,-0.6 c -258.32,-767.2 -172.71,-1604 239.58,-2309.7 419.18,-717.6 1115.02,-1210.7 1919.06,-1363.9 l -0.24,-1.6 89.57,-14.1 c 0.1,0 90.04,-14.2 90.04,-14.2 l 0.24,1.6 c 116.3,-14.6 232.81,-21.9 349.05,-21.9 408.82,0 813.75,89.4 1190.28,264.7 482.08,224.4 887.06,575.3 1176.33,1017.6 l 1.9,-1.1 17.8,29.1 0.4,-0.2 28.6,47.8 c 4.4,7.2 9.7,16.3 12.8,21.5 l 1.9,3.2 c 0.5,0.8 0.9,1.6 1.4,2.4 l 28.8,47.1 -1.3,0.8"
             style="fill:#e7f3fe;fill-opacity:1;fill-rule:nonzero;stroke:none"
             id="path52" /></g></g><path
         d="m 22436.8,10374.5 c 0,-4098 -3322.1,-7420 -7420,-7420 -4098,0 -7420.07,3322 -7420.07,7420 0,4097.9 3322.07,7420 7420.07,7420 4097.9,0 7420,-3322.1 7420,-7420"
         style="fill:#159875;fill-opacity:1;fill-rule:nonzero;stroke:none"
         id="path54" /><path
         d="m 21000.5,10296.7 c 0,-3310.1 -2683.3,-5993.5 -5993.5,-5993.5 -3310.1,0 -5993.46,2683.4 -5993.46,5993.5 0,3310.1 2683.36,5993.5 5993.46,5993.5 3310.2,0 5993.5,-2683.4 5993.5,-5993.5"
         style="fill:#0b4737;fill-opacity:1;fill-rule:nonzero;stroke:none"
         id="path56" /><path
         d="m 20709.1,10471.7 c 0,-3143.8 -2548.6,-5692.3 -5692.3,-5692.3 -3143.8,0 -5692.36,2548.5 -5692.36,5692.3 0,3143.8 2548.56,5692.3 5692.36,5692.3 3143.7,0 5692.3,-2548.5 5692.3,-5692.3"
         style="fill:#ffffff;fill-opacity:1;fill-rule:nonzero;stroke:none"
         id="path58" /><path
         d="m 15017,10271.7 c -69.4,0 -136.7,36 -173.7,100.4 -55,95.8 -21.9,218.1 73.9,273.1 l 2156.2,1237.4 c 95.7,55 218,21.9 273,-73.9 55,-95.8 21.9,-218.1 -73.9,-273 l -2156.2,-1237.5 c -31.4,-18 -65.6,-26.5 -99.3,-26.5"
         style="fill:#17a881;fill-opacity:1;fill-rule:nonzero;stroke:none"
         id="path60" /><path
         d="m 15016.9,10321.7 c -52.2,0 -102.9,27.2 -130.5,75.8 L 13231.9,13307 c -41,72 -15.8,163.6 56.2,204.5 72,41 163.6,15.8 204.5,-56.2 l 1654.6,-2909.5 c 40.9,-72 15.7,-163.5 -56.3,-204.5 -23.4,-13.3 -48.9,-19.6 -74,-19.6"
         style="fill:#f0b71f;fill-opacity:1;fill-rule:nonzero;stroke:none"
         id="path62" /><path
         d="m 15292,10471.7 c 0,-152 -123.2,-275.3 -275.2,-275.3 -152.1,0 -275.3,123.3 -275.3,275.3 0,152 123.2,275.2 275.3,275.2 152,0 275.2,-123.2 275.2,-275.2"
         style="fill:#212d51;fill-opacity:1;fill-rule:nonzero;stroke:none"
         id="path64" /><path
         d="m 14724.1,14327.2 h -259.5 v 860.3 h -250.4 v 183.3 l 509.9,78.6 v -1122.2"
         style="fill:#212d51;fill-opacity:1;fill-rule:nonzero;stroke:none"
         id="path66" /><path
         d="m 15870.1,14327.2 h -784.8 v 169.5 l 360.4,378.9 c 45.7,52.3 79.4,99.1 100.9,140.2 21.6,41 32.4,76.7 32.4,107 0,43.1 -10.9,77.5 -32.7,103.2 -21.9,25.7 -54.6,38.5 -98.2,38.5 -39.1,0 -69.8,-16.6 -92.1,-49.7 -22.3,-33.1 -33.5,-75.3 -33.5,-126.7 h -254.1 l -1.6,4.7 c -2.6,103.7 31.3,191.6 101.7,263.8 70.3,72.1 163.5,108.2 279.6,108.2 123.2,0 219.3,-30.3 288.4,-90.9 69,-60.6 103.6,-143.5 103.6,-248.8 0,-70.8 -18.4,-133.5 -55.1,-187.9 -36.7,-54.4 -104.4,-135.3 -202.9,-242.6 l -151.8,-162.5 2.3,-4.6 h 437.5 v -200.3"
         style="fill:#212d51;fill-opacity:1;fill-rule:nonzero;stroke:none"
         id="path68" /><path
         d="m 15038.3,6250.3 c -35.9,0 -66.9,-4.8 -92.8,-14.5 -25.9,-9.8 -46.3,-23.3 -61.2,-40.7 v -65.9 c 0,-80.8 13.2,-142.9 39.7,-186 26.4,-43.2 63.2,-64.9 110.5,-64.9 39,0 70.8,18.4 95.5,55.3 24.6,36.8 36.9,80.5 36.9,131.1 0,56.8 -11.9,101.9 -35.8,135.4 -23.8,33.5 -54.8,50.2 -92.8,50.2 z m 51.6,581.5 c 44.2,0 83.5,-3.7 117.9,-11.1 34.4,-7.5 72.4,-19.4 113.9,-35.9 l -43.1,-189.4 c -35.9,10.8 -67.4,18.8 -94.3,24.2 -27,5.4 -57.9,8.1 -92.8,8.1 -61.6,0 -111.1,-21.7 -148.3,-65.1 -37.2,-43.4 -55.1,-106.6 -53.5,-189.8 l 2.3,-3.9 c 22.6,25.7 52.6,45.7 90.1,60.1 37.5,14.4 80.1,21.6 127.9,21.6 100.1,0 178,-36.1 233.7,-108.2 55.7,-72.2 83.6,-164.5 83.6,-276.9 0,-110.9 -36.9,-203.2 -110.6,-276.9 -73.6,-73.7 -167.7,-110.5 -282.2,-110.5 -122.8,0 -221.8,40.3 -297.3,120.9 -75.5,80.6 -113.2,191 -113.2,331.2 v 225.6 c 0,147.9 43.5,264.2 130.5,348.9 87,84.8 198.8,127.1 335.4,127.1"
         style="fill:#212d51;fill-opacity:1;fill-rule:nonzero;stroke:none"
         id="path70" /><path
         d="m 10485.6,10548.3 c 29.2,0 55.6,5.2 78.9,15.4 23.4,10.3 42.8,24.4 58.2,42.4 v 115.5 c 0,73.4 -12.2,129.5 -36.6,168.3 -24.4,38.8 -55.6,58.2 -93.6,58.2 -40,0 -71.7,-20.3 -95.1,-60.9 -23.4,-40.6 -35,-87 -35,-139.4 0,-61.6 10.2,-110.3 30.8,-145.9 20.5,-35.7 51.3,-53.6 92.4,-53.6 z m -42.4,-353.5 c 51.9,0 94.7,18.6 128.6,55.9 33.9,37.2 50.9,88.7 50.9,154.4 v 49.3 c -25.2,-30.8 -54.5,-54.1 -87.8,-69.7 -33.4,-15.7 -68.8,-23.5 -106.3,-23.5 -102.2,0 -182.2,34.5 -239.9,103.6 -57.8,69 -86.7,163.4 -86.7,283 0,111.4 36.5,206 109.4,283.8 72.9,77.8 166.9,116.7 281.9,116.7 112.9,0 206,-40.8 279.2,-122.5 73.1,-81.6 109.7,-193.8 109.7,-336.5 v -266.5 c 0,-129.4 -41.6,-233.1 -124.7,-311.2 -83.2,-78 -188,-117 -314.3,-117 -38.5,0 -78.4,4.2 -119.7,12.7 -41.4,8.5 -80.8,20.4 -118.3,35.8 l 27,185.6 c 35.9,-11.8 69.9,-20.4 102,-25.8 32.1,-5.4 68.4,-8.1 109,-8.1"
         style="fill:#212d51;fill-opacity:1;fill-rule:nonzero;stroke:none"
         id="path72" /><path
         d="m 19386.2,10680 h 122.4 c 46.8,0 82.7,12.6 107.9,37.8 25.1,25.1 37.7,60 37.7,104.7 0,35.4 -11.3,65.2 -33.9,89.4 -22.6,24.1 -55.4,36.2 -98.6,36.2 -33.9,0 -63.6,-9.8 -89.3,-29.3 -25.7,-19.5 -38.5,-44.7 -38.5,-75.5 h -252.6 l -1.6,4.6 c -3.1,89.4 32.1,161.8 105.5,217.2 73.5,55.5 162.5,83.2 267.3,83.2 121.7,0 219,-27.9 291.9,-83.6 72.9,-55.7 109.3,-134.6 109.3,-236.8 0,-50.8 -15.7,-97.7 -47.3,-140.6 -31.6,-42.8 -73.8,-76.3 -126.7,-100.5 60.1,-22 107,-55.5 140.9,-100.5 33.9,-44.9 50.9,-98.7 50.9,-161.3 0,-102.7 -39.3,-183.4 -117.9,-242.2 -78.5,-58.8 -178.9,-88.2 -301.1,-88.2 -105.3,0 -197.3,27.6 -276.1,82.8 -78.8,55.2 -117,135.1 -114.4,239.9 l 1.5,4.6 h 254.2 c 0,-35.9 14,-66.1 42,-90.5 28,-24.4 62,-36.6 102,-36.6 45.7,0 82.2,12.9 109.4,38.5 27.2,25.7 40.8,58.1 40.8,97.1 0,54.4 -14.2,94 -42.7,119 -28.5,24.9 -68.7,37.3 -120.6,37.3 h -122.4 v 193.3"
         style="fill:#212d51;fill-opacity:1;fill-rule:nonzero;stroke:none"
         id="path74" /><path
         d="m 27759.6,10346.3 c -352.2,0 -638.7,-286.6 -638.7,-638.8 0,-352.2 286.5,-638.8 638.7,-638.8 352.3,0 638.8,286.6 638.8,638.8 0,352.2 -286.5,638.8 -638.8,638.8 z m 0,-1477.6 c -462.5,0 -838.7,376.3 -838.7,838.8 0,462.5 376.2,838.8 838.7,838.8 462.5,0 838.8,-376.3 838.8,-838.8 0,-462.5 -376.3,-838.8 -838.8,-838.8"
         style="fill:#9bd6e8;fill-opacity:1;fill-rule:nonzero;stroke:none"
         id="path76" /><path
         d="m 26707.6,10346.3 c -352.2,0 -638.8,-286.6 -638.8,-638.8 0,-352.2 286.6,-638.8 638.8,-638.8 352.2,0 638.8,286.6 638.8,638.8 0,352.2 -286.6,638.8 -638.8,638.8 z m 0,-1477.6 c -462.5,0 -838.8,376.3 -838.8,838.8 0,462.5 376.3,838.8 838.8,838.8 462.5,0 838.8,-376.3 838.8,-838.8 0,-462.5 -376.3,-838.8 -838.8,-838.8"
         style="fill:#9bd6e8;fill-opacity:1;fill-rule:nonzero;stroke:none"
         id="path78" /><path
         d="m 25566.5,10346.3 c -352.3,0 -638.8,-286.6 -638.8,-638.8 0,-352.2 286.5,-638.8 638.8,-638.8 352.2,0 638.7,286.6 638.7,638.8 0,352.2 -286.5,638.8 -638.7,638.8 z m 0,-1477.6 c -462.5,0 -838.8,376.3 -838.8,838.8 0,462.5 376.3,838.8 838.8,838.8 462.5,0 838.7,-376.3 838.7,-838.8 0,-462.5 -376.2,-838.8 -838.7,-838.8"
         style="fill:#9bd6e8;fill-opacity:1;fill-rule:nonzero;stroke:none"
         id="path80" /><path
         d="m 24514.4,10346.3 c -352.2,0 -638.8,-286.6 -638.8,-638.8 0,-352.2 286.6,-638.8 638.8,-638.8 352.2,0 638.8,286.6 638.8,638.8 0,352.2 -286.6,638.8 -638.8,638.8 z m 0,-1477.6 c -462.5,0 -838.8,376.3 -838.8,838.8 0,462.5 376.3,838.8 838.8,838.8 462.5,0 838.8,-376.3 838.8,-838.8 0,-462.5 -376.3,-838.8 -838.8,-838.8"
         style="fill:#9bd6e8;fill-opacity:1;fill-rule:nonzero;stroke:none"
         id="path82" /><path
         d="m 23421.3,10346.3 c -352.2,0 -638.8,-286.6 -638.8,-638.8 0,-352.2 286.6,-638.8 638.8,-638.8 352.2,0 638.7,286.6 638.7,638.8 0,352.2 -286.5,638.8 -638.7,638.8 z m 0,-1477.6 c -462.5,0 -838.8,376.3 -838.8,838.8 0,462.5 376.3,838.8 838.8,838.8 462.5,0 838.7,-376.3 838.7,-838.8 0,-462.5 -376.2,-838.8 -838.7,-838.8"
         style="fill:#9bd6e8;fill-opacity:1;fill-rule:nonzero;stroke:none"
         id="path84" /><path
         d="m 22369.2,10346.3 c -352.2,0 -638.8,-286.6 -638.8,-638.8 0,-352.2 286.6,-638.8 638.8,-638.8 352.2,0 638.8,286.6 638.8,638.8 0,352.2 -286.6,638.8 -638.8,638.8 z m 0,-1477.6 c -462.5,0 -838.8,376.3 -838.8,838.8 0,462.5 376.3,838.8 838.8,838.8 462.5,0 838.8,-376.3 838.8,-838.8 0,-462.5 -376.3,-838.8 -838.8,-838.8"
         style="fill:#9bd6e8;fill-opacity:1;fill-rule:nonzero;stroke:none"
         id="path86" /><path
         d="m 21193.7,10346.3 c -352.3,0 -638.8,-286.6 -638.8,-638.8 0,-352.2 286.5,-638.8 638.8,-638.8 352.2,0 638.7,286.6 638.7,638.8 0,352.2 -286.5,638.8 -638.7,638.8 z m 0,-1477.6 c -462.5,0 -838.8,376.3 -838.8,838.8 0,462.5 376.3,838.8 838.8,838.8 462.5,0 838.7,-376.3 838.7,-838.8 0,-462.5 -376.2,-838.8 -838.7,-838.8"
         style="fill:#9bd6e8;fill-opacity:1;fill-rule:nonzero;stroke:none"
         id="path88" /><path
         d="M 28610.2,2474.8 H 16952.3 c -133.3,0 -221.1,108.1 -196,241.3 l 1266.6,6750.1 c 25,133.3 153.3,241.3 286.6,241.3 h 11657.9 c 133.3,0 221,-108 196,-241.3 L 28896.8,2716.1 c -25,-133.2 -153.3,-241.3 -286.6,-241.3"
         style="fill:#0b4737;fill-opacity:1;fill-rule:nonzero;stroke:none"
         id="path90" /><path
         d="M 28828.3,2474.8 H 17170.4 c -133.3,0 -221.1,108.1 -196,241.3 L 18241,9466.2 c 25,133.3 153.3,241.3 286.6,241.3 h 11657.9 c 133.3,0 221,-108 196,-241.3 L 29114.9,2716.1 c -25,-133.2 -153.3,-241.3 -286.6,-241.3"
         style="fill:#159875;fill-opacity:1;fill-rule:nonzero;stroke:none"
         id="path92" /><path
         d="m 31180.5,2474.8 h -11658 c -133.2,0 -260.3,108.1 -283.8,241.3 l -1190.2,6750.1 c -23.5,133.3 65.5,241.3 198.7,241.3 h 11658 c 133.2,0 260.3,-108 283.8,-241.3 l 1190.3,-6750.1 c 23.5,-133.2 -65.5,-241.3 -198.8,-241.3"
         style="fill:#0b4737;fill-opacity:1;fill-rule:nonzero;stroke:none"
         id="path94" /><path
         d="M 31423.5,2474.8 H 19765.6 c -133.3,0 -260.4,108.1 -283.9,241.3 l -1190.2,6750.1 c -23.5,133.3 65.5,241.3 198.8,241.3 h 11657.9 c 133.3,0 260.4,-108 283.9,-241.3 l 1190.2,-6750.1 c 23.5,-133.2 -65.5,-241.3 -198.8,-241.3"
         style="fill:#159875;fill-opacity:1;fill-rule:nonzero;stroke:none"
         id="path96" /><path
         d="m 28313.4,9048.2 c 40.3,-112.2 5.1,-203.2 -78.4,-203.2 -83.5,0 -183.9,91 -224.1,203.2 -40.2,112.3 -5,203.2 78.5,203.2 83.5,0 183.8,-90.9 224,-203.2"
         style="fill:#212d51;fill-opacity:1;fill-rule:nonzero;stroke:none"
         id="path98" /><path
         d="m 27245.9,9048.2 c 40.2,-112.2 5,-203.2 -78.5,-203.2 -83.5,0 -183.8,91 -224,203.2 -40.2,112.3 -5.1,203.2 78.4,203.2 83.6,0 183.9,-90.9 224.1,-203.2"
         style="fill:#212d51;fill-opacity:1;fill-rule:nonzero;stroke:none"
         id="path100" /><path
         d="m 26060.6,9048.2 c 40.2,-112.2 5.1,-203.2 -78.5,-203.2 -83.5,0 -183.8,91 -224,203.2 -40.2,112.3 -5.1,203.2 78.4,203.2 83.6,0 183.9,-90.9 224.1,-203.2"
         style="fill:#212d51;fill-opacity:1;fill-rule:nonzero;stroke:none"
         id="path102" /><path
         d="m 24993,9048.2 c 40.2,-112.2 5.1,-203.2 -78.4,-203.2 -83.6,0 -183.9,91 -224.1,203.2 -40.2,112.3 -5.1,203.2 78.5,203.2 83.5,0 183.8,-90.9 224,-203.2"
         style="fill:#212d51;fill-opacity:1;fill-rule:nonzero;stroke:none"
         id="path104" /><path
         d="m 23961.2,9029.2 c 40.2,-112.3 5,-203.3 -78.5,-203.3 -83.5,0 -183.9,91 -224.1,203.3 -40.2,112.2 -5,203.2 78.5,203.2 83.5,0 183.8,-91 224.1,-203.2"
         style="fill:#212d51;fill-opacity:1;fill-rule:nonzero;stroke:none"
         id="path106" /><path
         d="m 22949.2,9029.2 c 40.2,-112.3 5,-203.3 -78.5,-203.3 -83.5,0 -183.9,91 -224.1,203.3 -40.2,112.2 -5,203.2 78.5,203.2 83.5,0 183.8,-91 224.1,-203.2"
         style="fill:#212d51;fill-opacity:1;fill-rule:nonzero;stroke:none"
         id="path108" /><path
         d="m 21821.5,9029.2 c 40.2,-112.3 5.1,-203.3 -78.4,-203.3 -83.6,0 -183.9,91 -224.1,203.3 -40.2,112.2 -5.1,203.2 78.5,203.2 83.5,0 183.8,-91 224,-203.2"
         style="fill:#212d51;fill-opacity:1;fill-rule:nonzero;stroke:none"
         id="path110" /><path
         d="m 28112.5,8958.2 c -35.5,0 -69.8,18.9 -88,52.2 -26.4,48.5 -8.4,109.2 40.1,135.6 205.9,112.1 333.8,327.3 333.8,561.5 0,352.2 -286.5,638.8 -638.8,638.8 -55.2,0 -100,44.8 -100,100 0,55.2 44.8,100 100,100 462.5,0 838.8,-376.3 838.8,-838.8 0,-307.5 -167.9,-590 -438.2,-737.1 -15.2,-8.3 -31.6,-12.2 -47.7,-12.2"
         style="fill:#9bd6e8;fill-opacity:1;fill-rule:nonzero;stroke:none"
         id="path112" /><path
         d="m 27056,8955.8 c -35.7,0 -70.2,19.2 -88.3,52.8 -26,48.7 -7.7,109.3 41,135.4 208.3,111.5 337.7,327.5 337.7,563.5 0,341.8 -267.2,622 -608.2,638.1 -55.2,2.6 -97.8,49.4 -95.2,104.6 2.6,55.1 49.5,97.5 104.6,95.1 447.9,-21 798.8,-389 798.8,-837.8 0,-309.9 -169.9,-593.4 -443.3,-739.8 -15,-8.1 -31.2,-11.9 -47.1,-11.9"
         style="fill:#9bd6e8;fill-opacity:1;fill-rule:nonzero;stroke:none"
         id="path114" /><path
         d="m 25880.8,8938.7 c -37.5,0 -73.5,21.2 -90.5,57.4 -23.5,50 -2.1,109.6 47.9,133.1 223,105 367,332 367,578.3 0,342.1 -267.4,622.4 -608.8,638.1 -55.2,2.5 -97.8,49.3 -95.3,104.5 2.6,55.2 49,98.1 104.5,95.3 448.4,-20.7 799.6,-388.7 799.6,-837.9 0,-323.4 -189.1,-621.4 -481.8,-759.2 -13.8,-6.5 -28.3,-9.6 -42.6,-9.6"
         style="fill:#9bd6e8;fill-opacity:1;fill-rule:nonzero;stroke:none"
         id="path116" /><path
         d="m 24807.5,8929.1 c -38.6,0 -75.4,22.6 -91.8,60.3 -21.9,50.7 1.4,109.6 52.1,131.5 234.1,101.3 385.4,331.6 385.4,586.6 0,342.1 -267.5,622.4 -608.9,638.1 -55.2,2.5 -97.9,49.3 -95.3,104.5 2.5,55.2 49.4,98.1 104.5,95.3 448.4,-20.6 799.7,-388.7 799.7,-837.9 0,-334.9 -198.6,-637.1 -506,-770.1 -12.9,-5.6 -26.4,-8.3 -39.7,-8.3"
         style="fill:#9bd6e8;fill-opacity:1;fill-rule:nonzero;stroke:none"
         id="path118" /><path
         d="m 23754.8,8948 c -36.5,0 -71.7,20.1 -89.3,54.9 -25,49.2 -5.3,109.4 44,134.4 216.2,109.5 350.5,328 350.5,570.2 0,340.3 -265.9,620.5 -605.4,637.9 -55.1,2.9 -97.6,49.9 -94.7,105 2.8,55.2 50,97.4 105,94.8 445.9,-22.9 795.1,-390.8 795.1,-837.7 0,-318 -176.3,-604.8 -460.1,-748.6 -14.5,-7.4 -29.9,-10.9 -45.1,-10.9"
         style="fill:#9bd6e8;fill-opacity:1;fill-rule:nonzero;stroke:none"
         id="path120" /><path
         d="m 22737.6,8966.9 c -34.6,0 -68.3,18 -86.8,50.1 -27.6,47.8 -11.1,109 36.7,136.6 197.7,113.8 320.5,326.1 320.5,553.9 0,331.6 -248.6,605 -578.3,636 -55,5.1 -95.4,53.9 -90.2,108.9 5.1,54.9 53.9,95.5 108.9,90.2 207,-19.4 398.7,-114.9 539.6,-268.8 141.9,-155 220,-356.1 220,-566.3 0,-299.1 -161.2,-577.8 -420.6,-727.2 -15.7,-9.1 -32.9,-13.4 -49.8,-13.4"
         style="fill:#9bd6e8;fill-opacity:1;fill-rule:nonzero;stroke:none"
         id="path122" /><path
         d="m 21598.5,8989.4 c -32.5,0 -64.5,15.9 -83.7,45.1 -30.3,46.2 -17.4,108.2 28.8,138.5 180.9,118.7 288.8,318.5 288.8,534.5 0,320.2 -239,592.6 -556.1,633.5 -54.7,7.1 -93.4,57.2 -86.3,112 7,54.7 57.1,93.4 111.9,86.4 416.5,-53.8 730.5,-411.4 730.5,-831.9 0,-283.6 -141.7,-545.9 -379.1,-701.7 -16.9,-11.1 -35.9,-16.4 -54.8,-16.4"
         style="fill:#9bd6e8;fill-opacity:1;fill-rule:nonzero;stroke:none"
         id="path124" /><path
         d="M 31043.4,2696.5 H 20067.5 c -116.1,0 -226.8,94.1 -247.3,210.2 l -957,5427.5 c -20.5,116.1 57,210.2 173.1,210.2 h 10976 c 116.1,0 226.8,-94.1 247.3,-210.2 l 957,-5427.5 c 20.5,-116.1 -57.1,-210.2 -173.2,-210.2"
         style="fill:#ffffff;fill-opacity:1;fill-rule:nonzero;stroke:none"
         id="path126" /><path
         d="m 20207,3070.2 h 10565.2 l -899.4,5100.5 H 19307.6 Z m 10589,-20 H 20190.2 l -1.5,8.2 -904.9,5132.3 h 10605.8 l 1.4,-8.3 905,-5132.2"
         style="fill:#9ec8ff;fill-opacity:1;fill-rule:nonzero;stroke:none"
         id="path128" /><path
         d="M 30603.5,4074.3 H 20018 v 20 h 10585.5 v -20"
         style="fill:#9ec8ff;fill-opacity:1;fill-rule:nonzero;stroke:none"
         id="path130" /><path
         d="M 30422.9,5098.4 H 19837.4 v 20 h 10585.5 v -20"
         style="fill:#9ec8ff;fill-opacity:1;fill-rule:nonzero;stroke:none"
         id="path132" /><path
         d="M 30242.4,6122.5 H 19656.8 v 20 h 10585.6 v -20"
         style="fill:#9ec8ff;fill-opacity:1;fill-rule:nonzero;stroke:none"
         id="path134" /><path
         d="M 30061.8,7146.6 H 19476.3 v 20 h 10585.5 v -20"
         style="fill:#9ec8ff;fill-opacity:1;fill-rule:nonzero;stroke:none"
         id="path136" /><path
         d="m 29262,3058.4 -902.9,5120.6 19.7,3.4 902.9,-5120.5 -19.7,-3.5"
         style="fill:#9ec8ff;fill-opacity:1;fill-rule:nonzero;stroke:none"
         id="path138" /><path
         d="m 27749.8,3058.4 -902.9,5120.6 19.7,3.4 902.9,-5120.5 -19.7,-3.5"
         style="fill:#9ec8ff;fill-opacity:1;fill-rule:nonzero;stroke:none"
         id="path140" /><path
         d="m 26237.6,3058.4 -902.9,5120.6 19.7,3.4 902.9,-5120.5 -19.7,-3.5"
         style="fill:#9ec8ff;fill-opacity:1;fill-rule:nonzero;stroke:none"
         id="path142" /><path
         d="m 24725.4,3058.4 -902.9,5120.6 19.7,3.4 902.9,-5120.5 -19.7,-3.5"
         style="fill:#9ec8ff;fill-opacity:1;fill-rule:nonzero;stroke:none"
         id="path144" /><path
         d="m 23213.2,3058.4 -902.9,5120.6 19.7,3.4 902.9,-5120.5 -19.7,-3.5"
         style="fill:#9ec8ff;fill-opacity:1;fill-rule:nonzero;stroke:none"
         id="path146" /><path
         d="m 21700.9,3058.4 -902.8,5120.6 19.6,3.4 902.9,-5120.5 -19.7,-3.5"
         style="fill:#9ec8ff;fill-opacity:1;fill-rule:nonzero;stroke:none"
         id="path148" /><path
         d="m 29599.2,7534.1 h -355.9 c -135.8,0 -266.4,111 -290.4,246.8 -23.9,135.8 67.6,246.8 203.3,246.8 h 355.9 c 135.8,0 266.5,-111 290.4,-246.8 24,-135.8 -67.5,-246.8 -203.3,-246.8"
         style="fill:#f39892;fill-opacity:1;fill-rule:nonzero;stroke:none"
         id="path150" /><path
         d="m 30092.8,5467.5 h -614.3 c -64.7,0 -127,52.9 -138.4,117.6 l -45.6,258.4 c -11.4,64.7 32.2,117.7 97,117.7 h 614.2 c 64.7,0 127,-53 138.4,-117.7 l 45.6,-258.4 c 11.4,-64.7 -32.2,-117.6 -96.9,-117.6"
         style="fill:#f39892;fill-opacity:1;fill-rule:nonzero;stroke:none"
         id="path152" /><path
         d="m 22298.4,6282.6 h -835.3 c -92.3,0 -181.2,75.6 -197.5,167.9 l -69.3,393.3 c -16.3,92.3 45.9,167.9 138.2,167.9 h 835.3 c 92.4,0 181.2,-75.6 197.5,-167.9 l 69.4,-393.3 c 16.2,-92.3 -46,-167.9 -138.3,-167.9"
         style="fill:#8ce8cd;fill-opacity:1;fill-rule:nonzero;stroke:none"
         id="path154" /><path
         d="m 22162.6,6385.3 h -600 c -66.3,0 -130.1,54.3 -141.8,120.6 l -49.8,282.5 c -11.7,66.3 33,120.6 99.3,120.6 h 600 c 66.3,0 130.1,-54.3 141.8,-120.6 l 49.9,-282.5 c 11.7,-66.3 -33.1,-120.6 -99.4,-120.6"
         style="fill:#ffffff;fill-opacity:1;fill-rule:nonzero;stroke:none"
         id="path156" /><path
         d="m 28900.9,3217.2 h -835.3 c -92.3,0 -181.2,75.5 -197.5,167.9 l -69.3,393.2 c -16.3,92.4 45.9,167.9 138.2,167.9 h 835.3 c 92.4,0 181.2,-75.5 197.5,-167.9 l 69.4,-393.2 c 16.2,-92.4 -46,-167.9 -138.3,-167.9"
         style="fill:#8ce8cd;fill-opacity:1;fill-rule:nonzero;stroke:none"
         id="path158" /><path
         d="m 28765.1,3319.9 h -600 c -66.3,0 -130.1,54.2 -141.8,120.6 l -49.8,282.4 c -11.7,66.4 33,120.7 99.3,120.7 h 600 c 66.3,0 130.1,-54.3 141.8,-120.7 l 49.9,-282.4 c 11.7,-66.4 -33.1,-120.6 -99.4,-120.6"
         style="fill:#ffffff;fill-opacity:1;fill-rule:nonzero;stroke:none"
         id="path160" /><path
         d="m 25337.3,6799.3 h -654.4 c -44.2,0 -86.8,36.1 -94.6,80.3 -7.8,44.2 22,80.4 66.2,80.4 h 654.4 c 44.2,0 86.8,-36.2 94.6,-80.4 7.8,-44.2 -22,-80.3 -66.2,-80.3"
         style="fill:#8ce8cd;fill-opacity:1;fill-rule:nonzero;stroke:none"
         id="path162" /><path
         d="m 25381.8,6546.7 h -654.4 c -44.2,0 -86.8,36.2 -94.5,80.4 -7.8,44.1 21.9,80.3 66.1,80.3 h 654.5 c 44.2,0 86.7,-36.2 94.5,-80.3 7.8,-44.2 -22,-80.4 -66.2,-80.4"
         style="fill:#8ce8cd;fill-opacity:1;fill-rule:nonzero;stroke:none"
         id="path164" /><path
         d="m 24428.1,3751.1 h -654.4 c -44.2,0 -86.7,36.1 -94.5,80.3 -7.8,44.2 22,80.4 66.2,80.4 h 654.4 c 44.2,0 86.7,-36.2 94.5,-80.4 7.8,-44.2 -22,-80.3 -66.2,-80.3"
         style="fill:#8ce8cd;fill-opacity:1;fill-rule:nonzero;stroke:none"
         id="path166" /><path
         d="m 24472.7,3498.5 h -654.4 c -44.2,0 -86.8,36.1 -94.6,80.3 -7.8,44.2 22,80.4 66.2,80.4 h 654.4 c 44.2,0 86.8,-36.2 94.6,-80.4 7.8,-44.2 -22,-80.3 -66.2,-80.3"
         style="fill:#8ce8cd;fill-opacity:1;fill-rule:nonzero;stroke:none"
         id="path168" /><path
         d="M 20698.4,5662.6 H 20044 c -44.2,0 -86.7,36.2 -94.5,80.4 -7.8,44.2 22,80.4 66.2,80.4 h 654.4 c 44.2,0 86.7,-36.2 94.5,-80.4 7.8,-44.2 -22,-80.4 -66.2,-80.4"
         style="fill:#8ce8cd;fill-opacity:1;fill-rule:nonzero;stroke:none"
         id="path170" /><path
         d="m 20743,5410.1 h -654.4 c -44.3,0 -86.8,36.1 -94.6,80.3 -7.8,44.2 22,80.4 66.2,80.4 h 654.4 c 44.2,0 86.8,-36.2 94.6,-80.4 7.8,-44.2 -22,-80.3 -66.2,-80.3"
         style="fill:#8ce8cd;fill-opacity:1;fill-rule:nonzero;stroke:none"
         id="path172" /><path
         d="m 22767.3,4198.9 h -969.4 c -83.9,0 -164.6,68.7 -179.4,152.5 l -76.8,435.3 c -14.7,83.9 41.8,152.5 125.6,152.5 h 969.5 c 83.8,0 164.5,-68.6 179.3,-152.5 l 76.8,-435.3 c 14.8,-83.8 -41.7,-152.5 -125.6,-152.5"
         style="fill:#9cd499;fill-opacity:1;fill-rule:nonzero;stroke:none"
         id="path174" /><path
         d="m 22179.1,4377.1 c -5.1,0 -10,2 -13.8,5.5 l -217.6,206.1 c -8,7.5 -8.4,20.2 -0.8,28.2 7.6,8 20.3,8.4 28.3,0.8 l 202.3,-191.5 306.8,363 c 7.2,8.4 19.8,9.5 28.2,2.3 8.5,-7.1 9.5,-19.7 2.4,-28.1 l -320.5,-379.2 c -3.6,-4.2 -8.7,-6.7 -14.2,-7 -0.4,-0.1 -0.7,-0.1 -1.1,-0.1"
         style="fill:#ffffff;fill-opacity:1;fill-rule:nonzero;stroke:none"
         id="path176" /><path
         d="m 26746.9,7316 h -969.4 c -83.9,0 -164.6,68.7 -179.4,152.5 l -76.7,435.3 c -14.8,83.9 41.7,152.5 125.6,152.5 h 969.4 c 83.9,0 164.6,-68.6 179.4,-152.5 l 76.7,-435.3 c 14.8,-83.8 -41.7,-152.5 -125.6,-152.5"
         style="fill:#9cd499;fill-opacity:1;fill-rule:nonzero;stroke:none"
         id="path178" /><path
         d="m 26158.7,7494.2 c -5.1,0 -10,2 -13.7,5.5 l -217.7,206.1 c -8,7.5 -8.3,20.2 -0.7,28.2 7.5,8.1 20.2,8.4 28.2,0.8 l 202.3,-191.5 306.9,363 c 7.1,8.4 19.8,9.5 28.2,2.3 8.4,-7.1 9.5,-19.7 2.3,-28.1 L 26174,7501.3 c -3.6,-4.2 -8.7,-6.7 -14.2,-7 -0.3,-0.1 -0.7,-0.1 -1.1,-0.1"
         style="fill:#ffffff;fill-opacity:1;fill-rule:nonzero;stroke:none"
         id="path180" /><path
         d="m 27052,4594.9 c 33.6,-190.2 -93.5,-344.4 -283.7,-344.4 -190.2,0 -371.6,154.2 -405.1,344.4 -33.6,190.2 93.4,344.4 283.7,344.4 190.2,0 371.6,-154.2 405.1,-344.4"
         style="fill:#8ce8cd;fill-opacity:1;fill-rule:nonzero;stroke:none"
         id="path182" /><path
         d="m 22776.9,3544.4 c 33.5,-190.2 -93.5,-344.4 -283.7,-344.4 -190.3,0 -371.7,154.2 -405.2,344.4 -33.5,190.2 93.5,344.4 283.7,344.4 190.2,0 371.6,-154.2 405.2,-344.4"
         style="fill:#8ce8cd;fill-opacity:1;fill-rule:nonzero;stroke:none"
         id="path184" /><path
         d="m 5622.05,10336 h 1575.69 c 0,-864.4 -711.29,-1575.7 -1575.69,-1575.7 -864.4,0 -1575.7,711.3 -1575.7,1575.7 0,864.4 711.3,1575.7 1575.7,1575.7 V 10336"
         style="fill:#8ce8cd;fill-opacity:1;fill-rule:nonzero;stroke:none"
         id="path186" /><path
         d="m 7461.64,10556.6 c 0,870.2 -705.46,1575.7 -1575.69,1575.7 v -1575.7 h 1575.69"
         style="fill:#f7da8d;fill-opacity:1;fill-rule:nonzero;stroke:none"
         id="path188" /><path
         d="m 5290.86,2924.7 h -974.55 v 2056.7 h 974.55 V 2924.7"
         style="fill:#8ce8cd;fill-opacity:1;fill-rule:nonzero;stroke:none"
         id="path190" /><path
         d="m 8303.18,2924.7 h -974.55 v 4205.7 h 974.55 V 2924.7"
         style="fill:#8ce8cd;fill-opacity:1;fill-rule:nonzero;stroke:none"
         id="path192" /><path
         d="m 9809.34,2924.7 h -974.55 v 2163 h 974.55 v -2163"
         style="fill:#8ce8cd;fill-opacity:1;fill-rule:nonzero;stroke:none"
         id="path194" /><path
         d="M 11315.5,2924.7 H 10341 v 2775.2 h 974.5 V 2924.7"
         style="fill:#8ce8cd;fill-opacity:1;fill-rule:nonzero;stroke:none"
         id="path196" /><path
         d="m 6797.02,2924.7 h -974.54 v 3414.6 h 974.54 V 2924.7"
         style="fill:#8ce8cd;fill-opacity:1;fill-rule:nonzero;stroke:none"
         id="path198" /><path
         d="m 12826.7,2924.7 h -974.5 v 5246.2 h 974.5 V 2924.7"
         style="fill:#8ce8cd;fill-opacity:1;fill-rule:nonzero;stroke:none"
         id="path200" /><path
         d="m 5288.66,2827.3 h -874.9 V 4884 h 874.9 V 2827.3"
         style="fill:#50ceab;fill-opacity:1;fill-rule:nonzero;stroke:none"
         id="path202" /><path
         d="m 8300.99,2827.3 h -874.9 v 4205.6 h 874.9 V 2827.3"
         style="fill:#50ceab;fill-opacity:1;fill-rule:nonzero;stroke:none"
         id="path204" /><path
         d="m 9807.14,2827.3 h -874.89 v 2162.9 h 874.89 V 2827.3"
         style="fill:#50ceab;fill-opacity:1;fill-rule:nonzero;stroke:none"
         id="path206" /><path
         d="m 11313.3,2827.3 h -874.9 v 2775.2 h 874.9 V 2827.3"
         style="fill:#50ceab;fill-opacity:1;fill-rule:nonzero;stroke:none"
         id="path208" /><path
         d="m 6794.82,2827.3 h -874.89 v 3414.6 h 874.89 V 2827.3"
         style="fill:#50ceab;fill-opacity:1;fill-rule:nonzero;stroke:none"
         id="path210" /><path
         d="m 12824.5,2827.3 h -874.9 v 5246.2 h 874.9 V 2827.3"
         style="fill:#50ceab;fill-opacity:1;fill-rule:nonzero;stroke:none"
         id="path212" /><path
         d="m 4046.48,5544.3 c -47.48,0 -94.19,22.5 -123.33,64.4 -47.26,68.1 -30.41,161.5 37.63,208.8 l 3817.19,2651.3 c 62.37,43.4 147.36,33.2 197.79,-23.6 l 1402.82,-1582 3005.12,2874 c 59.8,57.3 154.8,55.2 212.1,-4.7 57.2,-59.9 55.1,-154.8 -4.8,-212.1 L 9473.37,6538.7 c -29.47,-28.1 -69.27,-43.2 -109.83,-41.4 -40.74,1.7 -79.03,19.8 -106.07,50.3 L 7839.7,8146.4 4131.92,5571.1 c -26.08,-18.1 -55.91,-26.8 -85.44,-26.8"
         style="fill:#f0b71f;fill-opacity:1;fill-rule:nonzero;stroke:none"
         id="path214" /><path
         d="m 12436.1,8830.9 c -10,0 -20.1,1 -30.3,3 -81.1,16.6 -133.5,95.9 -116.8,177.1 l 107.7,526.7 -574.7,-58.1 c -82.3,-8.3 -156,51.7 -164.4,134.1 -8.3,82.5 51.8,156 134.2,164.4 l 777.7,78.6 c 47.5,4.8 94.4,-13.2 126.4,-48.6 31.9,-35.4 45.2,-83.9 35.6,-130.7 l -148.6,-726.6 c -14.6,-71 -77.1,-119.9 -146.8,-119.9"
         style="fill:#f0b71f;fill-opacity:1;fill-rule:nonzero;stroke:none"
         id="path216" /><path
         d="m 28537.2,11108.6 c 268.8,537.8 972,781.7 1171.6,182.7 199.6,-599.1 268.8,-637.2 549.8,-887.8 975.1,-869.5 -507.7,-1390.8 -1029.6,-1619.2 -521.8,-228.5 -730.6,739.6 -770.3,1509.1 -31.1,601.2 -0.2,657.9 78.5,815.2"
         style="fill:#303c60;fill-opacity:1;fill-rule:nonzero;stroke:none"
         id="path218" /><path
         d="m 29330.5,2995.4 c 52.6,-213.8 -51.3,-383.3 -190.3,-506.9 -113,-100.5 -460.6,-143.2 -443.8,-193.4 16.7,-50.3 427.1,-66.2 565.3,-45.3 138.1,21 175.8,88 347.8,87.9 112.8,-0.1 133.7,91.6 83.4,205 -50.2,113.3 -67.8,176 -22.4,277.5 45.4,101.6 -340,175.2 -340,175.2"
         style="fill:#4476bd;fill-opacity:1;fill-rule:nonzero;stroke:none"
         id="path220" /><path
         d="m 31381,2995.4 c -8.3,-222 -34.1,-387.3 20.3,-490.2 210.3,-175.8 385,-375.6 318.3,-389.4 -318.3,-65.7 -439.7,125 -619.7,179.3 -221,66.5 20.9,344.1 -65.7,700.3 -48.1,198 333.6,150.5 333.6,150.5 l 13.2,-150.5"
         style="fill:#4476bd;fill-opacity:1;fill-rule:nonzero;stroke:none"
         id="path222" /><path
         d="m 29879.2,8060.2 c -139.6,-1172.4 -393.3,-2039.1 -421.6,-2595 -28.2,-555.8 -141.3,-2744.3 -141.3,-2744.3 0,0 310.9,21.7 339.2,68.8 28.2,47.1 584.1,1281.3 555.8,2044.4 -28.3,763 555.1,1923.3 555.1,1923.3 l -140.6,1138.4 -746.6,164.4"
         style="fill:#f4cc60;fill-opacity:1;fill-rule:nonzero;stroke:none"
         id="path224" /><path
         d="m 30013.3,7549.8 -218.4,-91.3 c -59.3,-371.8 -125.2,-706.1 -183,-1002.6 347.5,-224.6 527,-973 603.9,-1430.5 39.1,511.9 280.7,1130.6 430.6,1472.7 l -633.1,1051.7"
         style="fill:#ecb010;fill-opacity:1;fill-rule:nonzero;stroke:none"
         id="path226" /><path
         d="m 31021.5,8178.4 c 0,0 470.6,-600.2 455.8,-1281.2 -22.5,-1036.6 -135.5,-1332.6 61.2,-2419.6 76.8,-424.5 -169.6,-1813.2 -169.6,-1813.2 0,0 -210.5,-16.5 -323.5,39.8 9.4,102 -136,1761.9 -419.3,2524.9 -137.2,369.5 -330,1404.3 -433.6,1997.8 -103.7,593.5 -122.5,716 -84.8,716 37.7,0 913.8,235.5 913.8,235.5"
         style="fill:#f4cc60;fill-opacity:1;fill-rule:nonzero;stroke:none"
         id="path228" /><path
         d="m 26830.4,6809.7 -650.1,-75 c -43.9,-5.1 -90.3,26 -103.1,69 -12.8,43 12.7,82.4 56.6,87.4 l 650.1,75 c 43.9,5.1 90.3,-26 103.1,-69 12.8,-43 -12.6,-82.3 -56.6,-87.4"
         style="fill:#8ce8cd;fill-opacity:1;fill-rule:nonzero;stroke:none"
         id="path230" /><path
         d="m 26903.6,6563.9 -650.1,-75 c -43.9,-5.1 -90.3,26 -103.1,69 -12.8,43 12.6,82.4 56.6,87.4 l 650.1,75 c 43.9,5.1 90.3,-26 103.1,-69 12.8,-43 -12.7,-82.4 -56.6,-87.4"
         style="fill:#8ce8cd;fill-opacity:1;fill-rule:nonzero;stroke:none"
         id="path232" /><path
         d="m 27325,7175.3 c -194.9,-61.7 -312.3,-74.7 -450.1,-65 -137.8,9.8 -228.8,-71.5 -310,-103.9 -81.2,-32.5 -113.7,-83.6 22.7,-65 136.5,18.6 202.4,18.6 202.4,18.6 0,0 98.4,-21.9 143.9,-54.4 21.8,-15.6 38.2,-30.2 71.7,-62.5 40.5,-39 38.4,-113.9 4,-158.4 -37.2,-48.2 -61.4,-101.4 -99.8,-120.3 -72,-35.6 -4.1,-78.3 67.7,-35.6 68.2,40.6 107.1,98.3 159.1,156 74.4,82.5 143,215.8 211.2,275.2 68.2,59.4 -22.8,215.3 -22.8,215.3"
         style="fill:#f09959;fill-opacity:1;fill-rule:nonzero;stroke:none"
         id="path234" /><path
         d="m 29271.9,9498.2 c -316.1,-649.9 -615,-1345.1 -1011.3,-1670 -396.3,-324.8 -1029.1,-671.6 -1029.1,-671.6 0,0 87,-244.4 126,-250.9 39,-6.5 981.1,326.8 1253.9,507.7 272.9,180.9 849.5,792.8 849.5,792.8 l -189,1292"
         style="fill:#72e2c2;fill-opacity:1;fill-rule:nonzero;stroke:none"
         id="path236" /><path
         d="m 29241.8,7975.9 c 259.7,233.8 514.9,618.9 506.9,659.5 -10.7,54.4 -393.8,1059.2 -393.8,1059.2 -83,-195 -154.6,-367.3 -216.5,-517.6 38.4,-455.4 208.9,-904.7 103.4,-1201.1"
         style="fill:#4adbb1;fill-opacity:1;fill-rule:nonzero;stroke:none"
         id="path238" /><path
         d="m 29827.8,10363.7 c 0,0 703.2,-83.5 1023.9,-564.8 320.7,-481.4 171.8,-1272.9 250.3,-1638.3 78.5,-365.4 -986.3,-819.1 -1120.9,-446.3 -129.1,357.4 -675.4,1017.9 -729.8,1216.7 -127.6,466.5 334.7,1261.3 334.7,1261.3 l 241.8,171.4"
         style="fill:#72e2c2;fill-opacity:1;fill-rule:nonzero;stroke:none"
         id="path240" /><path
         d="m 29407.7,10985.6 540.2,-695.9 c 0,0 -196.9,-309.2 -481.1,-984.5 -103.6,343.7 46.2,813.2 46.2,813.2 l -462.1,674.6 356.8,192.6"
         style="fill:#f09959;fill-opacity:1;fill-rule:nonzero;stroke:none"
         id="path242" /><path
         d="m 29659.6,10661 -251.9,324.6 -356.8,-192.6 462.1,-674.6 c 0,0 -8,-36.9 -18.7,-94.2 133.3,201 184.3,409.6 165.3,636.8"
         style="fill:#e38540;fill-opacity:1;fill-rule:nonzero;stroke:none"
         id="path244" /><path
         d="m 29331.1,10756.9 c 21.6,-275.7 -195.5,-510.2 -404.1,-526.6 -208.5,-16.3 -329.5,191.6 -351.1,467.4 -21.6,275.7 129.9,512.5 338.4,528.8 208.6,16.4 395.1,-193.9 416.8,-469.6"
         style="fill:#f09959;fill-opacity:1;fill-rule:nonzero;stroke:none"
         id="path246" /><path
         d="m 29831,8372.3 c 88.1,-557.6 -238.7,-1750.7 -238.7,-1750.7 0,0 194.8,-44.3 779,12.3 584.1,56.5 841.6,639.5 929.5,655.7 88,16.3 133.1,-542.5 176.5,-586.7 43.4,-44.1 50,705.7 -63.4,1000.5 -201,522.5 -161.6,744.2 -86.5,1060.8 C 31461,9327.1 29831,8372.3 29831,8372.3"
         style="fill:#72e2c2;fill-opacity:1;fill-rule:nonzero;stroke:none"
         id="path248" /><path
         d="m 31461.4,7521.5 c -12.7,69.5 -28.4,132.2 -47.5,181.9 -201,522.5 -161.6,744.2 -86.5,1060.8 5.9,24.9 -466.6,784 -466.6,784 l -614,660 c -589.3,-956.8 122.4,-1409.7 67.1,-1780.2 -55.3,-370.6 -340.5,-652.5 -340.5,-652.5 l 20.1,-131.4 c 27.6,-180.4 194.8,-305.7 375.5,-280.6 254.6,35.3 588.5,106.3 737.1,244.2 143.8,133.5 271.2,30.2 355.3,-86.2"
         style="fill:#4adbb1;fill-opacity:1;fill-rule:nonzero;stroke:none"
         id="path250" /><path
         d="m 30013,7685.1 c 0,0 -256.2,-120.5 -285.5,-142.7 -29.3,-22.3 -32.1,-114.1 -32.1,-114.1 0,0 -131.4,-159.6 -64.5,-197 66.9,-37.4 192.4,-139.5 322.2,-60.3 79.7,48.6 93.1,373.7 148.7,385.7 55.6,11.9 -88.8,128.4 -88.8,128.4"
         style="fill:#f09959;fill-opacity:1;fill-rule:nonzero;stroke:none"
         id="path252" /><path
         d="m 30363.5,10254.8 c 289.1,40.3 637.3,-434.1 803.9,-868.4 166.7,-434.4 370,-1057.6 370,-1057.6 0,0 -413.6,-456.7 -866.3,-646 -394.9,-165.2 -598.4,-238 -598.4,-238 l -122.9,220.6 886.3,743.3 c 0,0 -476.4,620.4 -598.9,1128.5 -122.5,508 -93.5,687 126.3,717.6"
         style="fill:#72e2c2;fill-opacity:1;fill-rule:nonzero;stroke:none"
         id="path254" /><path
         d="m 28524.6,10997.2 c 192.9,-486.8 754.3,-241.4 900.9,-154.2 146.6,87.2 183.2,-1107.8 505.6,-1061.2 236.7,34.3 112.4,327 344.3,447.6 170.8,88.9 305.3,-34.2 305.3,-34.2 0,0 -53.5,97.2 -163.1,141.8 -109.6,44.6 -544,337.1 -719.1,643.4 -175,306.3 -637.3,378.3 -753.9,343.6 -116.5,-34.7 -349.2,-265.6 -349.2,-265.6 l -70.8,-61.2"
         style="fill:#303c60;fill-opacity:1;fill-rule:nonzero;stroke:none"
         id="path256" /><path
         d="m 29919.3,9651.9 c -214.3,0 -307.6,420.9 -415.2,905.6 -21.4,96.6 -43.6,196.5 -66.8,292.6 -3.2,13.1 4.8,26.2 17.9,29.4 13.1,3.2 26.3,-4.9 29.4,-18 23.4,-96.5 45.6,-196.6 67.1,-293.4 97.3,-438.5 197.9,-891.6 384.5,-866.3 112.8,15.6 134.6,261 117.3,485.4 -1,13.5 9,25.2 22.5,26.2 13.4,1.1 25.1,-9 26.1,-22.4 11.8,-153.4 19.9,-512.8 -159.3,-537.4 -8,-1.1 -15.9,-1.7 -23.5,-1.7"
         style="fill:#303c60;fill-opacity:1;fill-rule:nonzero;stroke:none"
         id="path258" /><path
         d="m 29928,9523.8 c -20.6,0 -41.2,5.1 -61.7,15.5 -274.9,138.5 -457.2,1252.5 -464.9,1299.8 -2.1,13.3 6.9,25.8 20.2,28 13.4,2.1 25.8,-6.9 28,-20.2 50.8,-315.8 228.8,-1158.4 438.6,-1264.1 27.1,-13.7 53.3,-13.5 80.1,0.3 92.3,47.8 101,204.4 108.8,342.6 7.8,139.5 15.1,271.4 106.2,300.7 12.7,4.1 26.5,-3 30.6,-15.8 4.1,-12.8 -2.9,-26.5 -15.7,-30.6 -59.2,-19.1 -65.7,-134.7 -72.5,-257 -8.4,-151.2 -18,-322.5 -135,-383.1 -20.8,-10.8 -41.7,-16.1 -62.7,-16.1"
         style="fill:#303c60;fill-opacity:1;fill-rule:nonzero;stroke:none"
         id="path260" /><path
         d="m 29481,10756.2 c -21.7,-66.9 -78.5,-108.4 -126.9,-92.7 -48.4,15.7 -70,82.6 -48.4,149.4 21.7,66.9 78.5,108.4 126.9,92.7 48.4,-15.7 70,-82.6 48.4,-149.4"
         style="fill:#f09959;fill-opacity:1;fill-rule:nonzero;stroke:none"
         id="path262" /><path
         d="m 13550,3254 c 0,0 -1858.9,1291.2 -2645.2,546.7 -627.9,-594.4 486.6,-1292.8 1912.4,-1105 1003.5,132.2 1117.3,-59.8 1293,-55.7 1308.1,100.3 3070.6,491.6 2212.9,1106.4 C 15154.6,4584 14364.2,3696.1 13957.1,3475 13550,3254 13550,3254 13550,3254"
         style="fill:#232e4f;fill-opacity:1;fill-rule:nonzero;stroke:none"
         id="path264" /><path
         d="m 15953.4,3777.5 c -488.6,100.8 -2349.8,-589.4 -2349.8,-589.4 0,0 -1620.9,488.5 -2008.6,535.1 -387.8,46.5 -566.1,-100.8 -566.1,-100.8 0,0 182.9,206.1 395.5,224.9 212.5,18.7 519.6,69.8 519.6,69.8 0,0 3102,147.3 3513.1,54.2 411,-93 496.3,-193.8 496.3,-193.8"
         style="fill:#1b243d;fill-opacity:1;fill-rule:nonzero;stroke:none"
         id="path266" /><path
         d="m 13317.3,6290 c -73.7,-11.6 -1219.5,-511.4 -1233.6,-720.8 -14.1,-209.4 313.9,-1908 948.3,-2129.1 634.3,-221 1343.9,0 1343.9,0 0,0 744.4,1837.9 523.4,2186.9 -221,349 -1221.4,663 -1221.4,663 h -360.6"
         style="fill:#ffd24f;fill-opacity:1;fill-rule:nonzero;stroke:none"
         id="path268" /><path
         d="m 12475.1,5894.4 c -1094.7,-586.6 -1363.5,-1645.7 -1074,-1879.1 202.9,-163.6 967.8,-525.4 1630.9,-502.1 663,23.2 1285.7,-39.2 1285.7,-39.2 0,0 1137.4,231.4 1364.3,572.3 226.8,340.9 -402.5,1448.1 -966.8,1768.2 -564.4,320 -2240.1,79.9 -2240.1,79.9"
         style="fill:#ffd24f;fill-opacity:1;fill-rule:nonzero;stroke:none"
         id="path270" /><path
         d="m 13519,5627 c -151.5,0 -275.4,123.9 -275.4,275.3 V 6829 c 0,151.4 123.9,275.3 275.4,275.3 151.4,0 275.3,-123.9 275.3,-275.3 v -926.7 c 0,-151.4 -123.9,-275.3 -275.3,-275.3"
         style="fill:#f09959;fill-opacity:1;fill-rule:nonzero;stroke:none"
         id="path272" /><path
         d="m 13519,7104.3 c -151.5,0 -275.4,-123.9 -275.4,-275.3 v -757.8 c 162.4,-135.6 319.5,-64.5 550.7,114.6 V 6829 c 0,151.4 -123.9,275.3 -275.3,275.3"
         style="fill:#e38540;fill-opacity:1;fill-rule:nonzero;stroke:none"
         id="path274" /><path
         d="m 14123.2,6791.5 c -45.2,-92.3 -118.7,-143.6 -164.1,-114.4 -45.4,29.2 -45.5,127.7 -0.3,220.1 45.3,92.3 118.7,143.6 164.1,114.4 45.4,-29.2 45.6,-127.7 0.3,-220.1"
         style="fill:#f09959;fill-opacity:1;fill-rule:nonzero;stroke:none"
         id="path276" /><path
         d="m 13058,6890.3 c 52.3,-84 62.4,-185.6 22.4,-226.8 -39.9,-41.3 -114.7,-6.5 -167,77.5 -52.3,84 -62.4,185.6 -22.4,226.8 39.9,41.2 114.7,6.5 167,-77.5"
         style="fill:#f09959;fill-opacity:1;fill-rule:nonzero;stroke:none"
         id="path278" /><path
         d="m 14004.8,6797.5 c 0,-336.8 -212,-609.7 -473.5,-609.7 -261.5,0 -473.5,272.9 -473.5,609.7 0,336.7 212,609.6 473.5,609.6 261.5,0 473.5,-272.9 473.5,-609.6"
         style="fill:#f09959;fill-opacity:1;fill-rule:nonzero;stroke:none"
         id="path280" /><path
         d="m 14563.7,5288.5 c 310.3,-165.5 580.6,-792.4 580.6,-792.4 0,0 -698,-108.6 -842.8,-217.1 -144.7,-108.6 20.7,41.3 103.4,341.2 82.8,299.9 158.8,668.3 158.8,668.3"
         style="fill:#edc055;fill-opacity:1;fill-rule:nonzero;stroke:none"
         id="path282" /><path
         d="m 12404.1,5333.7 c 72.4,-330.9 418.8,-1254.7 418.8,-1254.7 0,0 -320.9,365.4 -661.8,386.1 -340.9,20.7 -467.5,25.8 -465.3,-56.9 0.4,-16.3 56.9,367.1 320.5,604.9 263.7,237.8 387.8,320.6 387.8,320.6"
         style="fill:#edc055;fill-opacity:1;fill-rule:nonzero;stroke:none"
         id="path284" /><path
         d="m 14483.5,3250.5 h -1873.2 c -75.4,0 -139.9,54.5 -152.3,129 l -225.9,1347.9 c -15.8,94.2 56.9,180.1 152.4,180.1 h 2324.8 c 95.5,0 168.2,-85.9 152.4,-180.1 l -225.9,-1347.9 c -12.5,-74.5 -76.9,-129 -152.3,-129"
         style="fill:#2a66c6;fill-opacity:1;fill-rule:nonzero;stroke:none"
         id="path286" /><path
         d="m 14483.5,3250.5 h -1873.2 c -75.4,0 -139.9,52.6 -152.3,124.3 l -225.9,1299.4 c -15.8,90.8 56.9,173.5 152.4,173.5 h 2324.8 c 95.5,0 168.2,-82.7 152.4,-173.5 l -225.9,-1299.4 c -12.5,-71.7 -76.9,-124.3 -152.3,-124.3"
         style="fill:#63acc2;fill-opacity:1;fill-rule:nonzero;stroke:none"
         id="path288" /><path
         d="m 13794.3,2719.5 c -11.2,1.9 -1209.8,301.9 -1477.3,80.9 -267.6,-221 895.7,-224.8 1105,-176.4 209.4,48.4 372.3,95.5 372.3,95.5"
         style="fill:#1b243d;fill-opacity:1;fill-rule:nonzero;stroke:none"
         id="path290" /><path
         d="m 14061.8,2665.7 c 0,0 255.9,192.8 593.2,157.9 337.4,-34.9 628.2,-108.4 337.4,-199.6 -290.8,-91.2 -593.3,-102.8 -732.8,-91.2 -139.6,11.7 -197.8,132.9 -197.8,132.9"
         style="fill:#1b243d;fill-opacity:1;fill-rule:nonzero;stroke:none"
         id="path292" /><path
         d="m 13380.2,7656.9 c -307.5,-93.3 -200.5,-959.2 151.1,-930.6 351.7,28.5 365.9,402.9 341,645.3 -25,242.5 -174.8,381.6 -492.1,285.3"
         style="fill:#0f2d5c;fill-opacity:1;fill-rule:nonzero;stroke:none"
         id="path294" /><path
         d="m 13269.7,7015.1 c -85.6,82 -203.3,-176.1 -156.9,-289.5 46.3,-113.4 -18.5,-179.4 44.2,-301.5 62.8,-122.1 -115.5,77.5 -140.5,223.7 -24.9,146.2 -39.2,399.4 -74.9,513.5 -35.6,114.1 1.9,311.9 160.7,353 158.9,41 195.9,114.1 256.5,117.6 60.6,3.6 349.4,-24.9 492.1,-103.4 142.6,-78.4 221,-196.1 210.3,-374.4 -10.7,-178.2 -57,-634.6 -99.8,-709.5 -42.8,-74.9 -64.9,-57.1 -52.1,-14.3 12.9,42.8 59.2,299.5 23.6,392.2 -35.7,92.7 -17.9,320.9 -110.6,338.8 -92.7,17.8 -71.3,-140.3 -181.8,-152.2 -110.5,-11.8 -370.8,6 -370.8,6"
         style="fill:#0f2d5c;fill-opacity:1;fill-rule:nonzero;stroke:none"
         id="path296" /></g></g></svg>
